<svg id="svg" version="1.1" xmlns="http://www.w3.org/2000/svg" xmlns:xlink="http://www.w3.org/1999/xlink" width="400" height="401.0416666666667" viewBox="0, 0, 400,401.0416666666667"><g id="svgg"><path id="path0" d="M154.000 105.019 C 141.455 106.607,132.495 111.501,123.249 121.814 C 116.842 128.961,116.199 130.392,118.113 133.241 C 120.255 136.427,122.890 135.743,126.747 131.000 C 139.909 114.811,151.557 110.916,177.678 113.966 C 182.614 114.542,185.014 114.654,186.878 114.393 C 217.595 110.101,231.050 115.268,245.743 137.000 C 248.562 141.169,252.787 149.551,252.801 151.000 C 252.803 151.220,253.053 151.875,253.355 152.455 C 256.832 159.117,258.241 177.096,256.157 188.200 C 254.856 195.128,255.637 205.462,257.863 210.800 C 258.184 211.570,259.174 214.360,260.064 217.000 C 260.953 219.640,262.085 222.700,262.580 223.800 C 274.285 249.821,271.569 267.193,253.530 281.701 L 251.663 283.202 250.397 282.136 C 247.884 280.022,241.600 271.222,241.600 269.818 C 241.600 269.580,241.189 268.759,240.688 267.993 C 238.253 264.276,234.686 253.084,232.977 243.800 C 232.653 242.040,232.108 239.160,231.765 237.400 C 231.423 235.640,230.902 231.961,230.607 229.225 L 230.072 224.251 231.583 222.025 C 239.993 209.638,243.877 189.499,240.420 176.200 C 237.154 163.639,233.883 157.023,226.714 148.481 C 208.524 126.805,176.161 120.793,151.095 134.432 C 143.520 138.554,135.550 145.223,131.800 150.577 C 131.140 151.519,130.127 152.900,129.548 153.645 C 121.237 164.351,116.449 187.046,119.726 200.200 C 121.848 208.718,125.543 217.590,128.950 222.344 C 129.638 223.303,130.753 224.871,131.428 225.830 C 132.938 227.972,136.476 231.760,138.576 233.482 L 140.139 234.764 140.258 246.156 L 140.378 257.549 139.089 258.337 C 130.575 263.549,120.726 266.159,107.600 266.682 L 101.800 266.914 100.947 264.957 C 97.007 255.915,97.583 243.411,102.493 231.400 C 102.943 230.300,104.202 227.060,105.293 224.200 C 106.383 221.340,107.717 217.843,108.257 216.428 C 112.322 205.784,113.610 195.759,111.911 188.000 C 110.118 179.813,110.144 169.600,111.977 161.800 C 113.523 155.222,114.488 152.011,115.844 148.940 C 117.418 145.372,115.880 142.658,112.266 142.622 C 109.502 142.595,108.995 143.062,107.306 147.200 C 105.218 152.311,104.556 154.706,102.935 163.000 C 101.861 168.495,101.967 182.154,103.134 188.540 C 104.797 197.641,103.133 207.718,98.169 218.622 C 97.662 219.734,96.414 222.884,95.394 225.622 C 89.016 242.750,88.059 253.252,91.796 265.111 L 92.713 268.021 90.857 269.298 C 81.906 275.454,80.188 288.368,87.456 294.865 C 91.404 298.394,100.301 301.600,106.148 301.600 C 106.286 301.600,106.400 301.850,106.400 302.154 C 106.400 303.207,108.512 308.993,109.422 310.435 C 114.088 317.826,129.169 319.969,150.082 316.212 C 153.441 315.609,152.870 315.045,156.758 322.800 C 158.578 326.430,160.382 329.760,160.767 330.200 C 161.152 330.640,161.942 331.833,162.522 332.852 C 164.159 335.725,171.177 344.310,174.275 347.229 C 177.586 350.350,181.926 354.000,182.325 354.000 C 182.481 354.000,183.056 354.410,183.604 354.911 C 185.150 356.325,193.107 360.992,196.000 362.181 C 197.430 362.769,199.140 363.492,199.800 363.787 C 202.944 365.193,204.534 365.721,209.572 367.025 C 217.233 369.009,219.934 369.513,225.400 369.981 C 234.380 370.750,250.924 370.314,256.000 369.175 C 262.962 367.613,271.257 365.549,272.600 365.044 C 280.360 362.128,286.819 358.941,291.000 355.964 C 291.880 355.338,293.500 354.215,294.600 353.470 C 298.678 350.706,300.400 348.739,300.400 346.846 C 300.400 341.982,295.373 340.928,291.600 345.002 C 287.311 349.634,274.234 356.005,263.000 358.937 C 262.560 359.052,261.210 359.427,260.000 359.770 C 256.608 360.731,243.426 362.000,236.829 362.000 C 202.814 362.000,178.627 347.434,163.767 318.000 C 161.518 313.546,161.528 313.467,164.480 312.498 C 182.203 306.680,199.700 290.777,206.633 274.182 C 207.303 272.579,207.231 272.599,214.400 272.007 C 217.370 271.762,220.430 271.401,221.200 271.205 C 229.258 269.150,232.400 268.935,232.400 270.439 C 232.400 271.202,234.967 276.326,236.238 278.101 C 236.987 279.146,237.600 280.105,237.600 280.231 C 237.600 280.719,241.507 285.506,243.796 287.823 C 254.224 298.376,268.728 301.451,285.306 296.621 C 287.234 296.060,288.999 295.600,289.228 295.600 C 289.639 295.600,292.459 294.406,294.400 293.410 C 302.523 289.244,308.094 284.693,315.124 276.481 C 317.823 273.327,320.424 273.161,321.627 276.065 C 322.656 278.549,318.381 302.692,315.887 308.482 C 314.795 311.017,313.600 314.219,313.600 314.608 C 313.600 315.255,308.126 325.779,306.402 328.446 C 304.585 331.256,304.365 332.939,305.606 334.517 C 307.681 337.155,311.470 336.630,313.206 333.463 C 313.707 332.548,314.901 330.525,315.858 328.966 C 316.816 327.408,317.600 326.016,317.600 325.874 C 317.600 325.732,318.643 323.407,319.917 320.708 C 321.191 318.008,323.216 312.788,324.417 309.107 L 326.600 302.413 328.000 302.162 C 349.354 298.326,364.080 289.765,371.971 276.600 C 372.498 275.720,373.248 274.640,373.638 274.200 C 375.751 271.816,381.291 259.233,383.853 251.000 C 387.288 239.962,379.846 229.593,368.496 229.603 C 358.979 229.611,344.750 235.139,331.769 243.872 C 327.212 246.937,321.058 245.242,317.937 240.061 C 317.453 239.258,316.369 237.839,315.528 236.909 C 314.688 235.979,314.000 235.066,314.000 234.881 C 314.000 234.297,304.694 225.093,301.929 222.942 C 299.563 221.102,296.969 219.461,292.289 216.845 C 285.024 212.786,276.978 213.259,273.344 217.960 C 271.102 220.859,270.129 220.872,269.395 218.014 C 269.255 217.472,268.801 216.281,268.385 215.368 C 264.709 207.298,263.015 195.311,264.715 189.400 C 265.607 186.302,266.120 174.818,265.641 168.687 C 264.175 149.910,255.808 132.546,241.260 118.091 C 234.658 111.533,229.959 108.974,218.701 105.810 C 212.975 104.201,198.803 104.025,188.685 105.437 C 184.351 106.042,183.130 106.078,180.685 105.671 C 172.678 104.337,161.534 104.065,154.000 105.019 M186.957 136.425 C 187.707 137.117,184.113 145.319,181.360 149.200 C 176.865 155.538,166.741 163.635,159.600 166.603 C 158.170 167.197,156.820 167.820,156.600 167.988 C 155.315 168.964,147.878 171.275,138.400 173.643 C 133.523 174.862,128.987 175.123,129.373 174.163 C 129.541 173.743,130.273 171.780,130.999 169.800 C 132.806 164.873,133.135 164.181,135.089 161.200 C 145.276 145.657,158.357 137.706,176.800 135.849 C 178.989 135.629,186.560 136.058,186.957 136.425 M199.600 139.626 C 209.979 143.357,220.295 152.477,226.181 163.125 C 228.185 166.749,230.800 173.162,230.800 174.451 C 230.800 176.195,210.876 171.263,202.892 167.542 C 201.073 166.694,199.453 165.994,199.292 165.988 C 198.180 165.940,186.473 157.817,186.423 157.058 C 186.410 156.870,186.841 156.191,187.380 155.551 C 189.819 152.652,194.800 143.315,194.800 141.641 C 194.800 140.714,196.098 138.352,196.520 138.510 C 196.784 138.610,198.170 139.112,199.600 139.626 M184.753 166.930 C 187.194 168.761,189.688 170.506,190.295 170.808 C 190.903 171.109,192.432 171.962,193.693 172.703 C 196.257 174.209,203.335 177.265,207.000 178.449 C 212.398 180.192,223.933 182.884,228.200 183.395 C 229.300 183.527,230.809 183.730,231.554 183.846 L 232.908 184.056 232.699 190.928 C 232.304 203.981,227.209 215.619,217.506 225.638 C 199.883 243.832,167.843 246.300,148.976 230.915 C 148.109 230.208,146.320 228.753,145.000 227.681 C 141.121 224.532,135.277 216.925,132.952 212.000 C 129.171 203.989,127.975 199.179,127.717 190.943 C 127.470 183.079,127.053 183.850,131.800 183.397 C 137.425 182.861,155.524 178.220,157.400 176.833 C 157.620 176.671,158.700 176.216,159.800 175.822 C 163.544 174.482,171.759 169.809,175.785 166.727 C 180.654 163.002,179.483 162.975,184.753 166.930 M151.445 194.975 C 149.558 195.808,149.230 196.888,149.214 202.320 C 149.197 208.166,149.607 209.330,151.922 210.024 C 155.855 211.202,157.600 208.808,157.600 202.232 C 157.600 195.825,155.398 193.229,151.445 194.975 M207.326 195.180 C 205.423 196.340,205.200 197.099,205.200 202.412 C 205.200 209.159,206.713 211.283,210.607 209.998 C 214.402 208.745,214.447 196.131,210.661 194.811 C 209.062 194.254,208.796 194.283,207.326 195.180 M172.408 200.514 C 167.604 202.945,171.860 210.157,178.908 211.528 C 186.056 212.918,193.580 207.407,191.609 202.224 C 190.626 199.638,186.716 199.410,184.396 201.804 C 182.410 203.853,180.328 203.788,177.800 201.600 C 175.811 199.879,174.275 199.569,172.408 200.514 M288.045 224.361 C 289.450 225.000,291.269 226.035,292.088 226.661 C 292.906 227.287,294.397 228.313,295.400 228.940 C 297.935 230.522,305.352 237.733,308.000 241.190 C 312.374 246.900,314.533 249.416,315.790 250.271 C 323.405 255.447,330.167 255.314,338.200 249.832 C 345.909 244.571,358.316 239.397,365.623 238.397 C 375.946 236.983,378.692 243.472,373.072 256.000 C 372.726 256.770,371.962 258.660,371.373 260.200 C 370.784 261.740,369.995 263.450,369.621 264.000 C 369.246 264.550,368.257 266.260,367.423 267.800 C 363.086 275.811,355.702 282.938,346.800 287.705 C 341.127 290.743,329.400 294.102,328.664 292.900 C 328.562 292.735,328.844 290.530,329.288 288.000 C 329.760 285.317,330.119 281.397,330.149 278.594 L 330.200 273.788 328.583 271.194 C 323.946 263.759,314.048 263.496,308.750 270.667 C 306.511 273.699,299.497 280.550,297.337 281.816 L 295.576 282.848 294.088 281.666 C 285.866 275.136,278.001 261.010,278.620 253.884 C 278.924 250.388,277.921 241.781,276.752 237.846 C 273.816 227.963,279.923 220.671,288.045 224.361 M223.434 239.642 C 225.089 249.260,225.981 253.352,227.218 256.988 C 227.868 258.899,228.400 260.524,228.400 260.599 C 228.400 261.267,221.302 262.717,212.700 263.808 C 210.487 264.089,210.348 263.710,211.369 260.173 C 212.127 257.546,213.488 248.347,213.829 243.540 C 214.152 238.997,213.925 239.429,217.200 237.110 C 218.630 236.098,220.239 234.801,220.775 234.229 C 222.138 232.775,222.314 233.135,223.434 239.642 M153.011 243.245 C 154.765 244.150,157.460 245.329,159.000 245.864 C 161.655 246.787,163.082 247.160,169.900 248.708 C 173.398 249.503,173.439 249.646,170.500 250.764 C 169.235 251.245,167.554 252.064,166.763 252.583 C 162.745 255.224,160.865 254.842,156.000 250.398 C 153.910 248.489,151.435 246.505,150.500 245.989 C 148.907 245.112,148.800 244.944,148.800 243.326 C 148.800 241.171,148.983 241.167,153.011 243.245 M205.193 245.900 C 205.185 247.044,204.422 251.637,203.383 256.800 C 199.602 275.582,187.456 291.750,170.600 300.437 C 152.580 309.723,122.182 312.692,116.610 305.709 C 114.404 302.944,114.356 297.789,116.513 295.332 C 119.112 292.372,120.042 292.121,129.400 291.853 C 149.148 291.288,161.979 287.209,172.032 278.300 C 178.580 272.498,185.026 260.776,186.229 252.485 C 186.595 249.960,187.045 249.200,188.173 249.200 C 189.375 249.200,199.098 246.708,202.000 245.656 C 204.945 244.588,205.201 244.608,205.193 245.900 M156.423 261.160 C 161.169 263.685,164.911 263.376,171.885 259.882 C 175.628 258.007,175.924 258.069,175.082 260.541 C 173.714 264.557,168.559 270.402,162.799 274.471 C 159.760 276.618,152.453 280.218,152.039 279.772 C 151.206 278.874,148.857 257.340,149.478 256.288 C 149.579 256.117,150.608 256.837,151.765 257.888 C 152.921 258.940,155.018 260.412,156.423 261.160 M141.508 269.031 C 141.660 270.671,143.204 280.460,143.438 281.264 C 143.770 282.406,140.144 282.878,129.600 283.067 C 116.152 283.307,112.057 284.793,109.000 290.541 L 107.800 292.797 105.764 292.799 C 95.850 292.805,89.322 286.454,92.362 279.760 C 93.893 276.391,95.872 275.737,105.400 275.455 C 116.373 275.131,128.821 273.196,132.771 271.201 C 135.228 269.959,140.672 267.687,141.000 267.766 C 141.220 267.818,141.449 268.388,141.508 269.031 M276.982 274.599 C 278.061 276.732,281.876 281.711,285.009 285.075 C 287.250 287.482,287.304 287.278,284.100 288.522 C 278.284 290.780,266.756 291.076,261.300 289.108 C 260.138 288.689,259.381 287.200,260.329 287.200 C 261.785 287.200,272.627 274.201,273.868 270.968 C 274.205 270.088,275.410 271.492,276.982 274.599 " stroke="none" fill="#080707" fill-rule="evenodd"></path><path id="path1" d="M178.600 0.650 C 174.860 0.955,171.440 1.370,171.000 1.574 C 170.560 1.777,168.400 2.153,166.200 2.410 C 164.000 2.667,162.020 3.013,161.800 3.179 C 161.580 3.345,159.420 3.797,157.000 4.183 C 154.580 4.569,152.420 5.018,152.200 5.182 C 151.980 5.346,150.630 5.714,149.200 6.000 C 147.770 6.286,146.420 6.646,146.200 6.800 C 145.980 6.954,144.675 7.312,143.300 7.595 C 141.925 7.878,140.800 8.236,140.800 8.391 C 140.800 8.546,139.765 8.901,138.500 9.180 C 137.235 9.459,135.445 10.028,134.522 10.444 C 133.599 10.860,132.644 11.200,132.400 11.200 C 132.156 11.200,131.156 11.565,130.178 12.010 C 129.200 12.456,127.860 12.928,127.200 13.060 C 126.540 13.192,126.000 13.443,126.000 13.618 C 126.000 13.793,125.415 14.060,124.700 14.212 C 123.985 14.363,122.770 14.815,122.000 15.217 C 121.230 15.618,119.925 16.152,119.100 16.404 C 118.275 16.656,117.600 17.005,117.600 17.179 C 117.600 17.353,116.790 17.723,115.800 18.000 C 114.810 18.277,114.000 18.661,114.000 18.852 C 114.000 19.043,113.806 19.200,113.569 19.200 C 113.191 19.200,110.929 20.273,105.670 22.947 C 104.861 23.358,104.110 23.813,104.000 23.958 C 103.890 24.103,103.035 24.559,102.100 24.972 C 101.165 25.384,100.400 25.838,100.400 25.980 C 100.400 26.123,99.770 26.467,99.000 26.746 C 98.230 27.024,97.600 27.403,97.600 27.587 C 97.600 27.771,97.060 28.110,96.400 28.340 C 95.740 28.570,95.200 28.928,95.200 29.136 C 95.200 29.343,94.783 29.618,94.274 29.746 C 93.764 29.874,92.963 30.298,92.493 30.689 C 92.023 31.080,90.708 31.940,89.570 32.600 C 88.433 33.260,87.214 34.115,86.862 34.500 C 86.510 34.885,85.987 35.200,85.699 35.200 C 85.411 35.200,85.071 35.470,84.945 35.800 C 84.818 36.130,84.509 36.402,84.257 36.404 C 84.006 36.406,83.053 36.991,82.139 37.704 C 81.226 38.417,79.981 39.360,79.373 39.800 C 78.765 40.240,78.073 40.783,77.834 41.006 C 77.595 41.229,76.590 42.030,75.600 42.785 C 73.663 44.262,73.273 44.584,71.340 46.289 C 70.648 46.900,69.727 47.670,69.295 48.000 C 64.678 51.524,53.213 63.014,47.754 69.589 C 47.119 70.354,46.330 71.273,46.000 71.632 C 45.670 71.991,44.998 72.806,44.507 73.442 C 44.016 74.079,42.081 76.560,40.207 78.955 C 38.333 81.350,36.800 83.452,36.800 83.626 C 36.800 83.800,36.550 84.193,36.245 84.498 C 35.940 84.803,34.680 86.571,33.446 88.426 C 32.211 90.282,31.066 91.980,30.901 92.200 C 30.735 92.420,30.330 93.140,30.001 93.800 C 29.671 94.460,29.310 95.090,29.199 95.200 C 28.731 95.664,26.454 99.599,26.211 100.366 C 26.065 100.825,25.800 101.200,25.622 101.200 C 25.443 101.200,25.060 101.785,24.771 102.500 C 24.482 103.215,24.133 103.890,23.995 104.000 C 23.582 104.330,20.800 110.167,20.800 110.704 C 20.800 110.977,20.649 111.200,20.464 111.200 C 20.279 111.200,19.890 111.920,19.600 112.800 C 19.310 113.680,18.928 114.400,18.752 114.400 C 18.576 114.400,18.216 115.120,17.953 116.000 C 17.689 116.880,17.341 117.600,17.180 117.600 C 17.019 117.600,16.764 118.089,16.614 118.687 C 16.464 119.285,15.906 120.694,15.374 121.817 C 14.843 122.941,14.294 124.432,14.154 125.130 C 14.014 125.829,13.759 126.400,13.587 126.400 C 13.415 126.400,13.043 127.300,12.761 128.400 C 12.479 129.500,12.124 130.400,11.972 130.400 C 11.820 130.400,11.480 131.253,11.218 132.295 C 10.955 133.337,10.600 134.372,10.427 134.595 C 10.255 134.818,9.789 136.260,9.391 137.800 C 8.993 139.340,8.538 140.780,8.378 141.000 C 8.219 141.220,7.859 142.480,7.578 143.800 C 7.298 145.120,6.934 146.380,6.772 146.600 C 6.609 146.820,6.252 148.170,5.980 149.600 C 5.708 151.030,5.341 152.387,5.164 152.616 C 4.987 152.844,4.528 155.004,4.144 157.416 C 3.759 159.827,3.322 161.890,3.171 162.000 C 3.020 162.110,2.670 164.180,2.392 166.600 C 2.114 169.020,1.753 171.180,1.590 171.400 C -0.279 173.918,-0.279 226.882,1.590 229.400 C 1.753 229.620,2.114 231.780,2.392 234.200 C 2.670 236.620,3.018 238.690,3.166 238.800 C 3.313 238.910,3.744 240.965,4.124 243.367 C 4.503 245.769,4.967 247.929,5.154 248.167 C 5.341 248.405,5.725 249.860,6.006 251.400 C 6.287 252.940,6.637 254.290,6.783 254.400 C 6.930 254.510,7.283 255.680,7.569 257.000 C 7.855 258.320,8.225 259.580,8.392 259.800 C 8.559 260.020,8.922 261.190,9.198 262.400 C 9.475 263.610,10.039 265.355,10.451 266.278 C 10.863 267.201,11.206 268.191,11.214 268.478 C 11.221 268.765,11.575 269.720,12.000 270.600 C 12.425 271.480,12.779 272.502,12.786 272.871 C 12.794 273.241,13.031 273.781,13.314 274.071 C 13.597 274.362,14.166 275.725,14.578 277.100 C 14.990 278.475,15.455 279.600,15.611 279.600 C 15.768 279.600,16.123 280.410,16.400 281.400 C 16.677 282.390,17.032 283.200,17.189 283.200 C 17.345 283.200,17.689 283.920,17.953 284.800 C 18.216 285.680,18.605 286.400,18.816 286.400 C 19.027 286.400,19.200 286.612,19.200 286.872 C 19.200 287.378,23.596 296.466,24.002 296.800 C 24.136 296.910,24.482 297.585,24.771 298.300 C 25.060 299.015,25.428 299.600,25.588 299.600 C 25.748 299.600,26.213 300.410,26.622 301.400 C 27.030 302.390,27.507 303.200,27.682 303.200 C 27.857 303.200,28.000 303.393,28.000 303.628 C 28.000 303.863,28.540 304.841,29.200 305.800 C 29.860 306.759,30.400 307.654,30.400 307.789 C 30.400 307.924,30.580 308.251,30.801 308.517 C 31.021 308.783,32.167 310.453,33.347 312.228 C 37.388 318.306,40.509 322.534,42.816 325.056 C 43.247 325.527,43.600 326.108,43.600 326.347 C 43.600 326.586,44.050 327.076,44.600 327.437 C 45.150 327.797,45.600 328.298,45.600 328.549 C 45.600 328.800,46.230 329.584,47.000 330.290 C 47.770 330.997,48.402 331.716,48.405 331.888 C 48.408 332.059,49.841 333.685,51.589 335.500 C 53.338 337.315,54.689 338.800,54.593 338.800 C 54.280 338.800,65.648 349.706,68.800 352.431 C 69.570 353.096,70.566 353.991,71.014 354.420 C 71.462 354.849,71.983 355.200,72.172 355.200 C 72.361 355.200,72.895 355.568,73.358 356.017 C 75.456 358.052,78.976 360.800,79.486 360.800 C 79.795 360.800,79.949 360.959,79.829 361.154 C 79.709 361.348,80.148 361.730,80.805 362.002 C 81.462 362.274,82.000 362.631,82.000 362.795 C 82.000 363.124,84.988 365.231,86.100 365.687 C 86.485 365.845,86.800 366.131,86.800 366.323 C 86.800 366.515,87.257 366.880,87.815 367.134 C 88.373 367.388,89.048 367.785,89.315 368.015 C 90.373 368.929,94.203 371.200,94.687 371.200 C 94.969 371.200,95.200 371.389,95.200 371.621 C 95.200 371.852,95.740 372.230,96.400 372.460 C 97.060 372.690,97.600 373.029,97.600 373.213 C 97.600 373.397,98.230 373.776,99.000 374.054 C 99.770 374.333,100.400 374.677,100.400 374.820 C 100.400 374.962,101.165 375.418,102.100 375.832 C 103.035 376.247,104.038 376.814,104.329 377.093 C 104.619 377.372,105.101 377.600,105.400 377.600 C 105.699 377.600,106.181 377.833,106.471 378.117 C 107.081 378.713,114.917 382.588,116.381 383.018 C 116.921 383.176,117.602 383.545,117.894 383.837 C 118.187 384.129,119.050 384.486,119.813 384.629 C 120.576 384.772,121.200 385.020,121.200 385.180 C 121.200 385.341,121.965 385.716,122.900 386.015 C 123.835 386.314,124.960 386.770,125.400 387.029 C 125.840 387.288,127.055 387.741,128.100 388.037 C 129.145 388.333,130.000 388.695,130.000 388.843 C 130.000 388.990,130.675 389.237,131.500 389.392 C 132.325 389.546,133.720 389.996,134.600 390.391 C 135.480 390.786,136.830 391.241,137.600 391.401 C 138.370 391.561,139.183 391.839,139.408 392.019 C 139.632 392.198,141.072 392.642,142.608 393.006 C 144.143 393.370,145.760 393.823,146.200 394.012 C 146.640 394.202,148.080 394.576,149.400 394.844 C 150.720 395.113,151.980 395.464,152.200 395.625 C 152.420 395.786,154.040 396.142,155.800 396.416 C 157.560 396.690,159.180 397.051,159.400 397.218 C 159.620 397.385,162.140 397.827,165.000 398.200 C 167.860 398.573,170.560 399.038,171.000 399.233 C 175.395 401.180,224.632 401.176,229.000 399.227 C 229.440 399.031,232.104 398.581,234.919 398.227 C 237.735 397.872,240.345 397.421,240.719 397.224 C 241.094 397.027,242.750 396.650,244.400 396.386 C 246.050 396.123,247.580 395.774,247.800 395.611 C 248.020 395.448,249.370 395.092,250.800 394.820 C 252.230 394.548,253.580 394.185,253.800 394.015 C 254.020 393.844,254.920 393.575,255.800 393.416 C 257.603 393.091,263.972 391.053,265.800 390.216 C 266.460 389.914,267.675 389.541,268.500 389.389 C 269.325 389.236,270.000 388.994,270.000 388.850 C 270.000 388.707,271.170 388.255,272.600 387.845 C 274.030 387.436,275.200 386.963,275.200 386.795 C 275.200 386.627,275.824 386.372,276.587 386.229 C 277.350 386.086,278.205 385.744,278.487 385.470 C 278.769 385.196,279.765 384.745,280.700 384.470 C 281.635 384.194,282.400 383.824,282.400 383.647 C 282.400 383.471,283.096 383.118,283.946 382.863 C 285.548 382.384,295.630 377.360,295.994 376.861 C 296.107 376.705,296.965 376.241,297.900 375.828 C 298.835 375.416,299.600 374.962,299.600 374.820 C 299.600 374.677,300.230 374.333,301.000 374.054 C 301.770 373.776,302.400 373.397,302.400 373.213 C 302.400 373.029,302.940 372.690,303.600 372.460 C 304.260 372.230,304.800 371.852,304.800 371.621 C 304.800 371.389,305.031 371.200,305.313 371.200 C 305.779 371.200,309.590 368.955,310.625 368.071 C 310.859 367.872,311.478 367.480,312.000 367.200 C 312.522 366.920,313.141 366.528,313.375 366.327 C 313.609 366.127,314.992 365.116,316.449 364.081 C 321.294 360.640,324.564 358.058,330.338 353.115 C 331.955 351.732,334.050 349.958,334.994 349.173 C 338.171 346.535,349.749 334.495,352.469 331.004 C 352.981 330.347,353.723 329.447,354.119 329.004 C 355.719 327.213,355.867 327.025,361.681 319.400 C 363.671 316.791,363.549 316.962,365.400 314.193 C 366.280 312.877,367.138 311.620,367.306 311.400 C 368.086 310.379,369.601 307.935,369.611 307.682 C 369.617 307.527,370.157 306.693,370.811 305.829 C 371.465 304.965,372.000 304.020,372.000 303.729 C 372.000 303.438,372.168 303.200,372.374 303.200 C 372.580 303.200,372.976 302.570,373.254 301.800 C 373.533 301.030,373.877 300.400,374.020 300.400 C 374.162 300.400,374.616 299.635,375.028 298.700 C 375.441 297.765,375.885 296.910,376.015 296.800 C 376.476 296.411,380.800 287.524,380.800 286.966 C 380.800 286.655,380.973 286.400,381.184 286.400 C 381.395 286.400,381.784 285.680,382.047 284.800 C 382.311 283.920,382.655 283.200,382.811 283.200 C 382.968 283.200,383.323 282.390,383.600 281.400 C 383.877 280.410,384.232 279.600,384.389 279.600 C 384.545 279.600,385.010 278.475,385.422 277.100 C 385.834 275.725,386.403 274.362,386.686 274.071 C 386.969 273.781,387.206 273.241,387.214 272.871 C 387.221 272.502,387.575 271.480,388.000 270.600 C 388.425 269.720,388.780 268.730,388.789 268.400 C 388.798 268.070,389.071 267.290,389.396 266.667 C 389.721 266.043,390.181 264.783,390.417 263.867 C 390.653 262.950,391.085 261.660,391.376 261.000 C 391.667 260.340,392.140 258.585,392.426 257.100 C 392.712 255.615,393.068 254.400,393.217 254.400 C 393.365 254.400,393.718 253.050,394.000 251.400 C 394.282 249.750,394.646 248.400,394.808 248.400 C 394.970 248.400,395.328 246.915,395.604 245.100 C 395.880 243.285,396.245 241.620,396.414 241.400 C 396.584 241.180,397.025 238.570,397.395 235.600 C 397.765 232.630,398.225 229.840,398.416 229.400 C 400.307 225.060,400.307 175.740,398.416 171.400 C 398.225 170.960,397.765 168.170,397.395 165.200 C 397.025 162.230,396.579 159.620,396.403 159.400 C 396.227 159.180,395.878 157.660,395.626 156.022 C 395.374 154.384,395.019 152.854,394.837 152.622 C 394.655 152.390,394.275 150.940,393.994 149.400 C 393.713 147.860,393.367 146.510,393.225 146.400 C 393.083 146.290,392.638 144.760,392.235 143.000 C 391.832 141.240,391.368 139.620,391.204 139.400 C 391.039 139.180,390.683 138.054,390.412 136.899 C 390.141 135.743,389.776 134.709,389.600 134.600 C 389.424 134.491,389.064 133.502,388.800 132.401 C 388.536 131.301,388.174 130.400,387.995 130.400 C 387.817 130.400,387.548 129.676,387.399 128.792 C 387.249 127.908,386.912 126.963,386.649 126.692 C 386.387 126.421,385.834 125.075,385.422 123.700 C 385.010 122.325,384.545 121.200,384.389 121.200 C 384.232 121.200,383.877 120.390,383.600 119.400 C 383.323 118.410,382.968 117.600,382.811 117.600 C 382.655 117.600,382.311 116.880,382.047 116.000 C 381.784 115.120,381.395 114.400,381.184 114.400 C 380.973 114.400,380.800 114.188,380.800 113.928 C 380.800 113.418,376.427 104.331,376.023 104.000 C 375.888 103.890,375.441 103.035,375.028 102.100 C 374.616 101.165,374.159 100.400,374.014 100.400 C 373.868 100.400,373.502 99.770,373.200 99.000 C 372.898 98.230,372.526 97.600,372.374 97.600 C 372.222 97.600,371.873 97.060,371.600 96.400 C 371.327 95.740,370.989 95.200,370.849 95.200 C 370.710 95.200,370.338 94.619,370.024 93.909 C 369.524 92.779,368.231 90.631,367.306 89.391 C 367.012 88.997,365.820 87.293,363.353 83.740 C 361.133 80.542,355.833 73.690,354.000 71.647 C 353.670 71.280,352.880 70.354,352.245 69.589 C 346.117 62.219,335.661 51.866,328.826 46.400 C 328.138 45.850,327.279 45.130,326.916 44.800 C 326.179 44.129,324.390 42.703,322.398 41.200 C 321.670 40.650,320.877 40.016,320.637 39.792 C 319.849 39.056,316.099 36.400,315.846 36.400 C 315.711 36.400,315.253 36.085,314.829 35.700 C 313.406 34.409,312.836 33.999,311.815 33.534 C 311.257 33.280,310.800 32.948,310.800 32.797 C 310.800 32.645,310.080 32.197,309.200 31.800 C 308.320 31.403,307.600 30.948,307.600 30.788 C 307.600 30.628,307.015 30.261,306.300 29.972 C 305.585 29.683,304.856 29.211,304.680 28.923 C 304.504 28.636,304.127 28.400,303.841 28.400 C 303.556 28.400,302.902 28.035,302.387 27.589 C 301.873 27.143,301.036 26.674,300.526 26.546 C 300.017 26.418,299.600 26.180,299.600 26.017 C 299.600 25.855,298.835 25.384,297.900 24.972 C 296.965 24.559,296.110 24.106,296.000 23.963 C 295.637 23.493,287.125 19.200,286.557 19.200 C 286.251 19.200,286.000 19.043,286.000 18.852 C 286.000 18.661,285.190 18.277,284.200 18.000 C 283.210 17.723,282.400 17.339,282.400 17.146 C 282.400 16.954,281.590 16.580,280.600 16.316 C 279.610 16.051,278.800 15.711,278.800 15.560 C 278.800 15.410,277.720 14.963,276.400 14.568 C 275.080 14.172,274.000 13.719,274.000 13.561 C 274.000 13.403,273.100 13.043,272.000 12.761 C 270.900 12.479,270.000 12.123,270.000 11.969 C 270.000 11.815,269.325 11.563,268.500 11.408 C 267.675 11.254,266.280 10.807,265.400 10.414 C 264.520 10.022,262.810 9.472,261.600 9.193 C 260.390 8.913,259.310 8.553,259.200 8.393 C 259.090 8.234,257.830 7.814,256.400 7.461 C 254.970 7.107,252.630 6.530,251.200 6.178 C 249.770 5.827,248.313 5.388,247.961 5.204 C 247.610 5.020,245.450 4.575,243.161 4.214 C 240.873 3.854,238.714 3.405,238.365 3.216 C 238.015 3.028,235.945 2.665,233.765 2.409 C 231.584 2.153,229.440 1.780,229.000 1.580 C 225.828 0.138,192.440 -0.478,178.600 0.650 M100.484 70.843 C 122.859 73.252,124.701 86.470,105.917 109.827 C 83.645 137.521,69.181 145.768,60.943 135.471 C 55.157 128.240,55.348 116.786,61.500 102.000 C 71.528 77.895,82.742 68.933,100.484 70.843 M178.400 104.822 C 180.711 105.441,187.272 105.444,189.600 104.828 C 192.121 104.160,208.598 103.816,212.800 104.343 C 230.698 106.586,241.061 113.816,254.163 133.200 C 257.857 138.664,261.695 147.147,263.711 154.302 C 264.161 155.899,264.601 157.133,264.689 157.045 C 264.908 156.825,263.889 151.849,263.573 151.600 C 263.433 151.490,263.217 150.950,263.092 150.400 C 262.967 149.850,262.730 148.950,262.566 148.400 C 262.280 147.442,262.324 147.455,263.610 148.700 C 264.348 149.415,265.188 150.000,265.476 150.000 C 265.844 150.000,266.000 150.653,266.000 152.200 C 266.000 153.410,266.180 154.400,266.400 154.400 C 266.620 154.400,266.800 154.748,266.800 155.173 C 266.800 155.598,267.160 156.060,267.600 156.200 C 268.111 156.362,268.400 156.805,268.400 157.427 C 268.400 158.133,268.619 158.400,269.200 158.400 C 269.903 158.400,270.000 158.667,270.000 160.600 C 270.000 162.680,270.055 162.800,271.000 162.800 C 271.933 162.800,272.000 162.933,272.000 164.800 C 272.000 166.756,272.027 166.800,273.200 166.800 C 274.373 166.800,274.400 166.844,274.400 168.800 C 274.400 169.900,274.580 170.800,274.800 170.800 C 275.020 170.800,275.200 171.790,275.200 173.000 C 275.200 174.586,275.351 175.200,275.743 175.200 C 276.155 175.200,276.410 176.698,276.800 181.400 C 277.190 186.102,277.445 187.600,277.857 187.600 C 278.300 187.600,278.400 189.476,278.400 197.800 C 278.400 207.733,278.379 208.000,277.600 208.000 C 276.926 208.000,276.800 208.267,276.798 209.700 C 276.795 211.958,276.126 214.266,275.392 214.548 C 274.939 214.721,274.800 214.448,274.800 213.387 C 274.800 212.421,274.618 212.000,274.200 212.000 C 273.742 212.000,273.600 212.504,273.600 214.136 C 273.600 216.026,273.485 216.324,272.600 216.727 C 272.050 216.978,271.600 217.457,271.600 217.791 C 271.600 218.126,271.330 218.400,271.000 218.400 C 270.667 218.400,270.400 218.044,270.400 217.600 C 270.400 217.160,270.580 216.800,270.800 216.800 C 271.020 216.800,271.200 215.900,271.200 214.800 C 271.200 213.700,271.380 212.800,271.600 212.800 C 271.820 212.800,272.000 211.810,272.000 210.600 C 272.000 208.911,272.139 208.400,272.600 208.400 C 273.118 208.400,273.200 206.956,273.200 197.800 C 273.200 188.644,273.118 187.200,272.600 187.200 C 272.105 187.200,272.000 186.467,272.000 183.000 C 272.000 179.067,271.949 178.800,271.200 178.800 C 270.507 178.800,270.400 178.533,270.400 176.800 C 270.400 175.289,270.253 174.800,269.800 174.800 C 269.339 174.800,269.200 174.289,269.200 172.600 C 269.200 170.911,269.061 170.400,268.600 170.400 C 268.147 170.400,268.000 169.911,268.000 168.400 C 268.000 166.720,267.882 166.400,267.259 166.400 C 266.616 166.400,266.483 165.947,266.254 162.967 C 266.082 160.728,265.779 159.322,265.384 158.927 C 264.724 158.266,264.822 159.826,265.666 163.400 C 265.874 164.280,266.146 168.420,266.270 172.600 C 266.475 179.506,266.370 181.446,265.401 188.600 C 265.193 190.138,265.210 190.123,265.824 188.200 C 266.306 186.693,266.516 183.809,266.677 176.500 C 266.794 171.165,267.050 166.800,267.245 166.800 C 267.440 166.800,267.600 167.700,267.600 168.800 C 267.600 169.900,267.780 170.800,268.000 170.800 C 268.220 170.800,268.400 171.790,268.400 173.000 C 268.400 174.933,268.497 175.200,269.200 175.200 C 269.893 175.200,270.000 175.467,270.000 177.200 C 270.000 178.933,270.107 179.200,270.800 179.200 C 271.549 179.200,271.600 179.467,271.600 183.400 C 271.600 186.867,271.705 187.600,272.200 187.600 C 272.718 187.600,272.800 189.000,272.800 197.800 C 272.800 206.600,272.718 208.000,272.200 208.000 C 271.747 208.000,271.600 208.489,271.600 210.000 C 271.600 211.100,271.420 212.000,271.200 212.000 C 270.980 212.000,270.800 212.990,270.800 214.200 C 270.800 216.803,269.815 217.355,269.374 215.000 C 269.158 213.853,268.400 212.956,268.400 213.849 C 268.400 214.458,270.579 219.600,270.837 219.600 C 270.996 219.600,271.850 218.735,272.735 217.678 C 274.211 215.914,275.249 215.204,278.000 214.073 C 287.208 210.289,306.544 222.595,318.234 239.679 C 321.680 244.715,327.515 246.297,331.590 243.300 C 332.562 242.585,333.577 242.000,333.845 242.000 C 334.114 242.000,334.393 241.865,334.467 241.700 C 336.115 237.992,360.821 228.819,369.201 228.803 C 377.063 228.788,384.471 235.887,385.096 244.033 C 385.363 247.520,382.870 257.834,381.189 260.200 C 381.032 260.420,380.674 261.320,380.392 262.200 C 380.111 263.080,378.715 266.050,377.290 268.800 C 368.506 285.757,355.585 296.146,337.400 300.877 C 336.520 301.106,335.350 301.443,334.800 301.628 C 334.250 301.812,332.720 302.072,331.400 302.206 C 326.820 302.671,326.994 302.566,326.254 305.319 C 325.625 307.661,324.309 311.422,322.134 317.096 C 320.714 320.801,316.733 328.815,315.063 331.332 C 314.258 332.544,313.600 333.696,313.600 333.893 C 313.600 335.631,309.355 337.292,307.196 336.398 C 303.587 334.904,303.598 330.957,307.224 325.915 C 308.257 324.478,308.915 323.191,311.889 316.800 C 313.782 312.732,313.738 312.844,315.557 307.332 C 317.251 302.196,318.872 295.404,319.598 290.400 C 321.754 275.537,321.752 275.490,318.881 274.614 C 317.890 274.312,318.032 274.183,311.600 281.196 C 306.507 286.749,297.705 293.120,293.014 294.649 C 291.906 295.010,290.820 295.438,290.600 295.599 C 289.246 296.590,281.229 298.446,275.953 298.989 C 266.852 299.926,260.392 298.927,253.303 295.485 C 251.179 294.454,251.364 294.163,250.641 299.677 C 249.806 306.045,247.477 313.548,244.745 318.671 C 239.696 328.138,240.323 340.394,246.302 349.127 C 249.004 353.074,255.785 359.600,257.184 359.600 C 263.370 359.600,283.269 351.446,288.022 346.964 C 288.584 346.434,289.185 346.000,289.358 346.000 C 289.531 346.000,290.601 345.217,291.736 344.259 C 297.184 339.664,303.873 343.381,300.366 349.055 C 299.661 350.195,290.919 357.200,290.200 357.200 C 290.069 357.200,288.958 357.842,287.731 358.627 C 284.165 360.908,274.744 365.140,271.400 365.964 C 270.520 366.181,268.540 366.724,267.000 367.170 C 260.849 368.954,257.933 369.511,250.000 370.415 C 246.016 370.869,227.290 370.869,224.000 370.415 C 222.570 370.218,219.897 369.843,218.060 369.583 C 216.223 369.324,212.623 368.490,210.060 367.730 C 207.497 366.971,204.500 366.096,203.400 365.787 C 202.300 365.477,201.040 365.059,200.600 364.858 C 192.130 360.984,191.285 360.550,186.664 357.689 C 178.381 352.563,168.751 343.154,163.185 334.749 C 162.256 333.347,161.162 331.750,160.752 331.200 C 160.343 330.650,159.493 329.210,158.864 328.000 C 158.234 326.790,156.793 324.042,155.660 321.894 C 154.527 319.746,153.600 317.732,153.600 317.418 C 153.600 316.419,152.936 316.362,148.318 316.969 C 138.428 318.269,136.751 318.401,130.155 318.401 C 116.229 318.399,110.047 315.146,106.848 306.135 C 106.382 304.822,106.000 303.354,106.000 302.873 C 106.000 302.110,105.782 302.000,104.269 302.000 C 100.777 302.000,93.082 299.489,89.810 297.280 C 84.414 293.640,83.000 290.799,83.001 283.600 C 83.002 276.335,84.818 272.681,90.205 269.114 C 92.248 267.761,92.206 267.886,91.383 265.551 C 87.830 255.483,88.483 242.413,93.147 230.200 C 93.567 229.100,95.021 225.320,96.380 221.800 C 103.463 203.441,104.565 197.915,102.722 189.981 C 100.604 180.865,101.554 162.482,104.613 153.400 C 104.909 152.520,105.356 151.011,105.605 150.047 C 107.114 144.221,109.907 141.033,112.900 141.720 C 113.676 141.898,113.965 141.586,114.998 139.463 C 115.657 138.108,116.423 136.761,116.700 136.469 C 117.916 135.189,117.986 134.529,117.119 132.478 L 116.264 130.454 117.232 128.636 C 123.744 116.403,139.650 106.188,155.200 104.252 C 158.103 103.891,176.620 104.346,178.400 104.822 M53.249 156.007 C 59.831 157.835,61.398 167.331,56.662 176.679 C 51.928 186.021,41.730 181.402,41.630 169.871 C 41.546 160.097,46.537 154.142,53.249 156.007 M265.226 203.846 C 265.199 204.719,267.757 212.691,268.210 213.143 C 268.555 213.488,268.020 211.288,267.398 209.800 C 267.122 209.140,266.527 207.340,266.074 205.800 C 265.622 204.260,265.241 203.381,265.226 203.846 M273.126 273.159 C 271.320 276.434,267.464 281.240,264.048 284.473 C 260.324 287.997,260.275 288.116,262.309 288.725 C 268.551 290.596,276.855 290.352,283.268 288.109 L 286.336 287.037 284.668 285.375 C 281.127 281.847,278.292 278.105,275.613 273.423 C 274.097 270.773,274.423 270.807,273.126 273.159 " stroke="none" fill="#6ad5fb" fill-rule="evenodd"></path><path id="path2" d="M89.812 71.599 C 87.675 71.986,87.395 72.090,83.902 73.804 C 81.782 74.843,78.350 77.189,77.081 78.465 C 74.836 80.722,70.978 85.499,69.733 87.563 C 68.676 89.316,64.078 97.891,63.600 99.000 C 63.411 99.440,62.770 100.970,62.177 102.400 C 61.583 103.830,60.867 105.540,60.585 106.200 C 60.303 106.860,59.868 108.210,59.619 109.200 C 59.370 110.190,59.006 111.360,58.810 111.800 C 57.350 115.070,57.109 129.200,58.513 129.200 C 58.744 129.200,58.822 129.312,58.685 129.448 C 57.488 130.645,63.937 138.127,66.596 138.626 C 68.487 138.980,73.886 138.592,74.533 138.055 C 74.800 137.834,76.069 137.100,77.354 136.424 C 78.639 135.748,80.187 134.791,80.795 134.298 C 81.402 133.804,82.411 133.040,83.037 132.600 C 86.429 130.213,95.917 120.769,99.761 115.953 C 100.179 115.429,101.443 113.920,102.570 112.600 C 105.547 109.113,112.400 99.941,112.400 99.445 C 112.400 99.364,113.023 98.263,113.784 96.998 C 121.830 83.636,118.019 74.287,103.600 72.020 C 99.782 71.420,92.099 71.185,89.812 71.599 M177.567 136.161 C 177.475 136.250,175.725 136.525,173.678 136.772 C 167.651 137.500,162.121 139.168,157.200 141.741 C 143.860 148.716,134.005 160.133,130.562 172.600 C 129.877 175.081,129.867 174.938,130.700 174.611 C 131.085 174.460,132.300 174.179,133.400 173.987 C 134.500 173.795,136.660 173.346,138.200 172.989 C 139.740 172.633,142.440 172.009,144.200 171.603 C 149.373 170.409,152.233 169.362,160.400 165.673 C 166.778 162.791,175.867 155.653,179.610 150.587 C 182.974 146.032,186.400 139.435,186.400 137.510 C 186.400 136.608,178.373 135.382,177.567 136.161 M47.589 157.078 C 42.127 160.820,40.505 174.267,45.066 178.001 C 48.644 180.931,50.486 181.590,52.373 180.614 C 54.609 179.458,57.975 172.937,57.995 169.724 C 57.998 169.242,58.180 168.736,58.400 168.600 C 59.124 168.153,58.863 163.293,58.015 161.432 C 56.173 157.389,50.558 155.043,47.589 157.078 M177.000 166.336 C 175.460 167.602,173.075 169.304,171.700 170.118 C 166.044 173.470,164.497 174.308,162.400 175.153 C 161.190 175.641,159.570 176.364,158.800 176.760 C 156.974 177.698,153.388 178.923,149.400 179.971 C 147.640 180.433,144.580 181.242,142.600 181.769 C 140.620 182.296,136.930 183.034,134.400 183.408 C 127.338 184.453,127.822 184.150,127.675 187.632 C 127.112 200.969,133.942 216.798,144.491 226.600 C 149.022 230.810,149.645 231.244,157.474 235.642 C 169.161 242.206,191.277 242.155,203.121 235.536 C 211.608 230.794,215.998 227.273,220.813 221.346 C 228.207 212.246,233.151 198.223,232.719 187.581 C 232.579 184.146,233.061 184.437,225.800 183.394 C 221.153 182.727,219.417 182.321,209.600 179.604 C 200.985 177.219,189.626 171.523,183.516 166.524 C 179.826 163.504,180.426 163.521,177.000 166.336 M155.373 194.668 C 159.374 196.575,159.168 208.566,155.106 210.191 C 150.683 211.961,148.804 209.605,148.801 202.286 C 148.799 194.928,150.875 192.523,155.373 194.668 M211.437 194.661 C 215.471 197.304,214.943 208.890,210.724 210.278 C 206.632 211.625,204.657 209.306,204.466 202.931 C 204.250 195.712,207.378 192.002,211.437 194.661 M178.000 201.200 C 179.460 202.422,180.254 202.800,181.364 202.800 C 182.504 202.800,183.193 202.455,184.554 201.200 C 188.201 197.838,193.919 200.797,192.439 205.281 C 189.850 213.126,176.271 214.498,171.388 207.409 C 167.629 201.950,172.940 196.964,178.000 201.200 M220.370 235.045 C 219.836 235.619,218.382 236.785,217.137 237.634 C 214.613 239.358,214.637 239.292,214.194 245.600 C 213.938 249.236,213.767 250.295,212.206 257.904 C 211.653 260.600,211.200 262.922,211.200 263.063 C 211.200 263.464,217.890 262.878,221.000 262.205 C 226.283 261.063,227.809 260.546,227.638 259.957 C 227.550 259.651,227.048 257.960,226.523 256.200 C 225.673 253.350,222.887 240.159,222.194 235.700 C 221.885 233.715,221.674 233.639,220.370 235.045 M149.276 243.475 C 149.386 244.786,149.637 245.088,151.530 246.197 C 152.702 246.883,154.954 248.711,156.535 250.258 C 160.963 254.589,161.977 254.856,165.630 252.653 C 166.857 251.913,168.567 251.082,169.430 250.806 C 171.584 250.116,171.928 249.688,170.558 249.404 C 163.091 247.853,157.346 245.950,152.342 243.370 C 149.064 241.681,149.125 241.679,149.276 243.475 M203.425 245.560 C 203.303 245.758,202.257 246.141,201.101 246.412 C 199.946 246.683,198.820 247.039,198.600 247.202 C 198.160 247.529,189.998 249.522,188.400 249.693 C 187.367 249.803,187.211 250.168,185.958 255.400 C 184.666 260.792,179.575 271.650,177.851 272.690 C 177.568 272.860,176.888 273.669,176.340 274.487 C 174.989 276.503,170.805 280.228,167.400 282.445 C 162.373 285.718,162.904 285.455,155.600 288.276 C 149.582 290.600,140.774 291.937,128.787 292.347 C 119.743 292.656,118.094 293.222,116.414 296.598 C 113.914 301.625,116.109 306.618,121.563 308.307 C 125.879 309.644,144.009 308.792,150.800 306.933 C 152.010 306.601,153.677 306.165,154.504 305.962 C 167.686 302.736,178.133 296.862,186.808 287.800 C 191.783 282.602,196.637 275.055,199.026 268.800 C 199.825 266.710,200.732 264.406,201.042 263.681 C 201.910 261.649,203.503 254.603,204.000 250.600 C 204.245 248.620,204.545 246.595,204.666 246.100 C 204.889 245.189,203.916 244.766,203.425 245.560 M138.400 269.678 C 135.245 271.224,133.595 271.876,132.000 272.204 C 131.230 272.363,130.420 272.626,130.200 272.789 C 129.980 272.953,128.540 273.392,127.000 273.766 C 125.460 274.140,123.660 274.609,123.000 274.809 C 120.837 275.463,113.134 275.999,105.895 276.000 C 101.987 276.000,98.477 276.165,98.095 276.367 C 97.713 276.568,96.828 276.945,96.129 277.203 C 95.430 277.461,94.403 278.332,93.847 279.136 C 89.993 284.717,94.198 290.430,103.013 291.588 C 104.560 291.792,106.135 292.077,106.513 292.222 C 106.953 292.391,107.203 292.291,107.207 291.943 C 107.236 289.825,113.661 283.600,115.819 283.600 C 116.270 283.600,116.859 283.381,117.127 283.113 C 117.476 282.764,121.017 282.555,129.626 282.374 C 136.234 282.234,141.808 281.952,142.014 281.746 C 142.437 281.323,141.736 272.707,141.173 271.400 C 140.983 270.960,140.777 270.150,140.714 269.600 L 140.600 268.600 138.400 269.678 " stroke="none" fill="#facac4" fill-rule="evenodd"></path><path id="path3" d="M155.600 113.455 C 143.863 115.008,135.726 119.956,126.747 131.000 C 123.669 134.785,122.497 135.498,120.313 134.915 L 118.788 134.508 116.807 137.789 C 114.145 142.196,114.148 142.184,115.359 143.625 C 116.546 145.034,116.720 146.953,115.844 148.940 C 114.488 152.011,113.523 155.222,111.977 161.800 C 110.144 169.600,110.118 179.813,111.911 188.000 C 113.610 195.759,112.322 205.784,108.257 216.428 C 107.717 217.843,106.383 221.340,105.293 224.200 C 104.202 227.060,102.943 230.300,102.493 231.400 C 97.583 243.411,97.007 255.915,100.947 264.957 L 101.800 266.914 107.600 266.682 C 120.726 266.159,130.575 263.549,139.089 258.337 L 140.378 257.549 140.258 246.156 L 140.139 234.764 138.576 233.482 C 136.476 231.760,132.938 227.972,131.428 225.830 C 130.753 224.871,129.638 223.303,128.950 222.344 C 125.543 217.590,121.848 208.718,119.726 200.200 C 118.683 196.016,118.698 181.093,119.748 176.600 C 121.640 168.511,126.079 158.114,129.548 153.645 C 130.127 152.900,131.140 151.519,131.800 150.577 C 145.573 130.911,175.177 122.181,200.108 130.431 C 214.790 135.290,227.384 146.219,234.771 160.512 C 239.111 168.910,241.158 176.691,241.478 186.001 C 241.925 199.022,238.341 212.072,231.583 222.025 L 230.072 224.251 230.607 229.225 C 230.902 231.961,231.423 235.640,231.765 237.400 C 232.108 239.160,232.653 242.040,232.977 243.800 C 234.686 253.084,238.253 264.276,240.688 267.993 C 241.189 268.759,241.600 269.580,241.600 269.818 C 241.600 271.222,247.884 280.022,250.397 282.136 L 251.663 283.202 253.530 281.701 C 261.356 275.407,267.429 266.583,269.084 259.102 C 271.037 250.273,268.643 237.278,262.580 223.800 C 262.085 222.700,260.953 219.640,260.064 217.000 C 259.174 214.360,258.184 211.570,257.863 210.800 C 255.637 205.462,254.856 195.128,256.157 188.200 C 258.241 177.096,256.832 159.117,253.355 152.455 C 253.053 151.875,252.803 151.220,252.801 151.000 C 252.787 149.551,248.562 141.169,245.743 137.000 C 231.051 115.269,217.595 110.101,186.881 114.393 C 185.017 114.653,182.675 114.543,177.881 113.970 C 168.809 112.886,161.232 112.710,155.600 113.455 M195.825 139.317 C 195.511 139.803,195.128 140.740,194.974 141.400 C 194.224 144.606,190.739 151.233,187.734 155.167 L 186.334 157.000 188.267 158.704 C 193.102 162.967,203.954 168.575,211.600 170.762 C 221.391 173.561,229.975 175.359,230.594 174.739 C 231.236 174.097,227.968 166.140,224.868 160.800 C 222.802 157.240,216.507 150.143,212.806 147.200 C 209.589 144.642,202.956 140.890,199.098 139.446 L 196.396 138.434 195.825 139.317 M138.600 268.917 C 137.720 269.373,135.560 270.353,133.800 271.095 C 131.891 271.899,131.165 272.336,132.000 272.179 C 133.598 271.878,135.218 271.244,138.500 269.631 L 140.800 268.502 140.800 269.827 C 140.800 270.556,140.980 271.264,141.200 271.400 C 141.660 271.684,141.706 271.030,141.350 269.250 C 141.063 267.813,140.791 267.780,138.600 268.917 M127.605 273.013 C 125.172 273.770,119.525 274.771,114.200 275.387 C 111.780 275.668,110.520 275.920,111.400 275.948 C 113.655 276.020,121.563 275.244,123.000 274.809 C 123.660 274.609,125.460 274.141,127.000 273.769 C 128.540 273.397,129.971 272.937,130.180 272.746 C 130.724 272.251,129.718 272.355,127.605 273.013 M95.594 276.916 C 92.810 278.388,92.200 279.520,92.200 283.213 L 92.200 286.367 94.144 288.342 C 95.617 289.838,96.697 290.516,98.607 291.143 C 101.038 291.941,107.760 292.797,105.600 292.033 C 105.050 291.839,103.970 291.660,103.200 291.635 C 98.110 291.473,93.151 288.073,92.543 284.328 C 92.050 281.289,94.259 277.448,96.792 276.942 C 97.466 276.807,98.114 276.540,98.232 276.348 C 98.625 275.713,97.350 275.987,95.594 276.916 M142.139 279.297 C 142.173 280.780,142.335 281.995,142.500 281.997 C 142.876 282.001,142.809 279.396,142.392 277.800 C 142.163 276.924,142.094 277.329,142.139 279.297 M138.500 282.276 C 138.885 282.376,139.515 282.376,139.900 282.276 C 140.285 282.175,139.970 282.093,139.200 282.093 C 138.430 282.093,138.115 282.175,138.500 282.276 M118.600 282.691 C 117.940 282.785,117.229 283.028,117.020 283.231 C 116.811 283.434,116.270 283.600,115.819 283.600 C 113.557 283.600,106.725 290.397,107.296 292.079 C 107.393 292.366,108.060 291.563,108.777 290.296 C 111.809 284.938,117.596 282.466,126.000 282.938 C 128.090 283.055,131.510 283.009,133.600 282.836 C 136.726 282.576,135.839 282.520,128.600 282.520 C 123.760 282.520,119.260 282.597,118.600 282.691 " stroke="none" fill="#f32b4b" fill-rule="evenodd"></path><path id="path4" d="M280.442 224.287 C 276.990 225.988,275.566 237.738,278.280 242.130 C 278.416 242.349,278.648 246.055,278.795 250.364 L 279.064 258.200 281.104 262.884 C 284.286 270.193,291.591 280.068,295.271 282.038 C 296.228 282.550,302.576 277.236,306.200 272.888 C 311.808 266.160,313.580 265.038,318.600 265.038 C 323.393 265.038,326.842 267.151,329.638 271.800 C 330.857 273.828,330.954 282.658,329.820 288.536 C 329.445 290.480,329.238 292.171,329.360 292.293 C 329.819 292.752,338.555 291.010,340.600 290.052 C 345.438 287.786,347.631 286.800,347.834 286.800 C 351.005 286.800,364.074 273.357,367.774 266.288 C 368.490 264.920,369.563 262.874,370.158 261.742 C 373.051 256.238,376.220 245.678,375.570 243.708 C 374.260 239.739,371.123 238.048,366.451 238.791 C 359.667 239.870,354.658 241.524,347.318 245.109 C 345.163 246.162,342.285 247.783,340.922 248.711 C 339.559 249.640,338.342 250.400,338.218 250.400 C 338.094 250.400,337.108 251.021,336.027 251.781 C 331.558 254.922,322.183 255.260,318.339 252.418 C 317.730 251.968,317.042 251.600,316.809 251.600 C 316.162 251.600,311.528 246.823,310.004 244.585 C 301.306 231.810,286.211 221.445,280.442 224.287 M149.794 260.078 C 150.390 267.891,151.829 278.239,152.415 278.927 C 152.754 279.325,157.191 277.528,159.400 276.099 C 166.558 271.467,169.532 268.819,172.315 264.600 C 174.017 262.019,175.327 259.202,174.986 258.856 C 174.908 258.776,173.349 259.524,171.522 260.518 C 164.150 264.529,158.566 264.035,152.071 258.796 L 149.541 256.756 149.794 260.078 M228.800 270.053 C 224.320 271.404,214.883 272.777,209.968 272.793 C 207.551 272.801,207.555 272.798,206.278 276.000 C 203.513 282.932,190.421 299.451,186.774 300.608 C 186.348 300.743,186.000 301.011,186.000 301.203 C 186.000 302.438,170.276 311.185,165.600 312.550 C 162.358 313.497,162.231 313.624,162.911 315.242 C 163.770 317.290,168.725 326.372,169.631 327.559 C 170.068 328.132,171.972 330.628,173.863 333.106 C 185.296 348.091,200.209 356.658,221.800 360.643 C 227.678 361.728,245.844 361.714,252.378 360.619 L 256.955 359.852 255.383 358.626 C 241.695 347.954,237.510 332.237,244.745 318.671 C 247.477 313.548,249.806 306.045,250.641 299.677 C 250.978 297.112,251.330 294.937,251.424 294.842 C 251.519 294.748,250.922 294.218,250.098 293.664 C 243.715 289.372,237.042 281.634,233.872 274.848 C 233.192 273.392,232.267 271.568,231.818 270.795 L 231.000 269.389 228.800 270.053 " stroke="none" fill="#1ccece" fill-rule="evenodd"></path><path id="path5" d="M161.900 104.296 C 163.275 104.374,165.525 104.374,166.900 104.296 C 168.275 104.218,167.150 104.154,164.400 104.154 C 161.650 104.154,160.525 104.218,161.900 104.296 M201.100 104.296 C 202.475 104.374,204.725 104.374,206.100 104.296 C 207.475 104.218,206.350 104.154,203.600 104.154 C 200.850 104.154,199.725 104.218,201.100 104.296 M156.100 104.676 C 156.485 104.776,157.115 104.776,157.500 104.676 C 157.885 104.575,157.570 104.493,156.800 104.493 C 156.030 104.493,155.715 104.575,156.100 104.676 M171.905 104.683 C 172.402 104.779,173.122 104.775,173.505 104.675 C 173.887 104.575,173.480 104.496,172.600 104.501 C 171.720 104.505,171.407 104.587,171.905 104.683 M194.705 104.683 C 195.202 104.779,195.922 104.775,196.305 104.675 C 196.687 104.575,196.280 104.496,195.400 104.501 C 194.520 104.505,194.207 104.587,194.705 104.683 M210.500 104.676 C 210.885 104.776,211.515 104.776,211.900 104.676 C 212.285 104.575,211.970 104.493,211.200 104.493 C 210.430 104.493,210.115 104.575,210.500 104.676 M182.291 105.889 C 183.001 105.977,184.261 105.979,185.091 105.892 C 185.921 105.805,185.340 105.733,183.800 105.731 C 182.260 105.729,181.581 105.800,182.291 105.889 M228.800 108.984 C 228.800 109.094,229.520 109.551,230.400 110.000 C 231.280 110.449,232.000 110.726,232.000 110.616 C 232.000 110.506,231.280 110.049,230.400 109.600 C 229.520 109.151,228.800 108.874,228.800 108.984 M238.200 115.200 C 239.059 116.080,239.852 116.800,239.962 116.800 C 240.072 116.800,239.459 116.080,238.600 115.200 C 237.741 114.320,236.948 113.600,236.838 113.600 C 236.728 113.600,237.341 114.320,238.200 115.200 M129.375 115.300 L 128.200 116.600 129.500 115.425 C 130.215 114.779,130.800 114.194,130.800 114.125 C 130.800 113.816,130.470 114.088,129.375 115.300 M123.781 120.900 L 122.200 122.600 123.900 121.019 C 125.481 119.548,125.784 119.200,125.481 119.200 C 125.416 119.200,124.651 119.965,123.781 120.900 M244.783 121.700 C 245.764 122.745,246.619 123.600,246.683 123.600 C 246.984 123.600,246.666 123.241,244.900 121.583 L 243.000 119.800 244.783 121.700 M178.905 135.887 C 179.514 135.979,180.414 135.977,180.905 135.882 C 181.397 135.787,180.900 135.711,179.800 135.714 C 178.700 135.717,178.297 135.795,178.905 135.887 M170.600 136.564 C 167.616 137.072,161.018 139.151,161.345 139.479 C 161.453 139.587,163.220 139.133,165.271 138.471 C 167.322 137.809,170.755 137.050,172.900 136.784 C 175.045 136.519,176.800 136.233,176.800 136.151 C 176.800 135.862,173.380 136.090,170.600 136.564 M184.800 136.354 C 186.135 136.591,186.198 136.678,186.157 138.202 L 186.114 139.800 186.680 138.447 C 187.487 136.517,187.142 135.990,185.113 136.053 L 183.400 136.105 184.800 136.354 M157.336 140.962 C 155.773 141.711,154.366 142.531,154.210 142.784 C 153.987 143.144,160.073 140.318,160.767 139.739 C 161.385 139.223,159.742 139.809,157.336 140.962 M185.244 141.244 C 184.998 141.951,184.866 142.600,184.952 142.685 C 185.038 142.771,185.309 142.262,185.556 141.556 C 185.802 140.849,185.934 140.200,185.848 140.115 C 185.762 140.029,185.491 140.538,185.244 141.244 M111.218 142.131 C 111.608 142.479,114.400 142.819,114.399 142.518 C 114.399 142.343,113.642 142.148,112.717 142.084 C 111.792 142.021,111.117 142.042,111.218 142.131 M151.782 144.135 C 147.140 146.790,138.376 155.382,136.416 159.200 C 135.753 160.491,136.182 160.022,138.794 156.600 C 141.973 152.435,150.819 144.400,152.224 144.400 C 152.487 144.400,152.926 144.130,153.200 143.800 C 153.862 143.003,153.691 143.043,151.782 144.135 M183.846 144.186 C 183.491 144.728,183.200 145.290,183.200 145.435 C 183.200 145.991,179.340 151.119,177.025 153.640 C 172.138 158.959,165.006 163.792,156.700 167.412 C 154.335 168.442,152.400 169.369,152.400 169.470 C 152.400 169.782,154.055 169.158,157.508 167.545 C 159.327 166.695,160.958 166.000,161.132 166.000 C 161.306 166.000,163.597 164.651,166.224 163.002 C 173.436 158.476,179.135 152.861,183.224 146.254 C 184.781 143.738,185.325 141.928,183.846 144.186 M262.251 151.574 C 262.627 153.039,263.571 155.086,263.555 154.400 C 263.547 154.070,263.194 153.080,262.771 152.200 C 262.348 151.320,262.114 151.038,262.251 151.574 M134.550 162.100 C 133.181 164.062,132.801 164.886,130.999 169.800 C 130.273 171.780,129.552 173.715,129.397 174.100 C 129.231 174.511,129.294 174.800,129.550 174.800 C 129.789 174.800,130.093 174.305,130.226 173.700 C 130.530 172.312,132.446 166.734,132.802 166.200 C 133.471 165.196,136.023 160.400,135.887 160.400 C 135.804 160.400,135.202 161.165,134.550 162.100 M176.329 166.329 C 172.805 169.050,171.702 170.007,172.800 169.392 C 173.683 168.898,180.000 163.962,180.000 163.767 C 180.000 163.498,179.957 163.528,176.329 166.329 M180.740 164.128 C 181.315 164.821,186.523 168.797,188.200 169.823 C 188.860 170.227,189.310 170.455,189.200 170.330 C 188.706 169.768,180.316 163.617,180.740 164.128 M102.109 167.600 C 102.109 168.590,102.187 168.995,102.282 168.500 C 102.378 168.005,102.378 167.195,102.282 166.700 C 102.187 166.205,102.109 166.610,102.109 167.600 M265.693 169.600 C 265.693 170.370,265.775 170.685,265.876 170.300 C 265.976 169.915,265.976 169.285,265.876 168.900 C 265.775 168.515,265.693 168.830,265.693 169.600 M149.000 170.427 C 147.356 171.056,147.249 171.148,148.400 170.949 C 150.002 170.671,152.504 169.666,151.600 169.664 C 151.270 169.663,150.100 170.006,149.000 170.427 M101.753 175.000 C 101.753 177.640,101.818 178.668,101.897 177.284 C 101.975 175.901,101.974 173.741,101.895 172.484 C 101.816 171.228,101.752 172.360,101.753 175.000 M141.600 172.253 C 139.510 172.790,136.180 173.579,134.200 174.007 C 130.720 174.758,130.686 174.776,133.174 174.544 C 134.590 174.412,137.110 173.960,138.774 173.538 C 140.438 173.117,142.871 172.502,144.181 172.172 C 145.490 171.842,146.645 171.488,146.748 171.386 C 147.138 170.995,145.259 171.312,141.600 172.253 M165.800 173.048 C 164.040 174.051,162.960 174.755,163.400 174.612 C 165.007 174.090,170.014 171.103,169.100 171.212 C 169.045 171.218,167.560 172.045,165.800 173.048 M193.200 172.555 C 193.200 172.831,196.021 174.512,196.194 174.339 C 196.278 174.255,195.638 173.780,194.773 173.282 C 193.908 172.784,193.200 172.457,193.200 172.555 M161.000 175.414 C 159.995 175.898,159.963 175.953,160.800 175.751 C 161.350 175.619,161.971 175.350,162.180 175.155 C 162.698 174.671,162.414 174.733,161.000 175.414 M198.400 175.400 C 198.950 175.714,199.580 175.972,199.800 175.972 C 200.020 175.972,199.750 175.714,199.200 175.400 C 198.650 175.086,198.020 174.828,197.800 174.828 C 197.580 174.828,197.850 175.086,198.400 175.400 M157.000 176.991 C 155.900 177.521,155.270 177.956,155.600 177.959 C 155.930 177.962,157.010 177.530,158.000 177.000 C 160.335 175.750,159.593 175.743,157.000 176.991 M202.800 177.200 C 203.570 177.622,204.380 177.966,204.600 177.966 C 204.820 177.966,204.370 177.622,203.600 177.200 C 202.830 176.778,202.020 176.434,201.800 176.434 C 201.580 176.434,202.030 176.778,202.800 177.200 M152.266 178.674 C 151.203 179.000,150.407 179.340,150.498 179.431 C 150.700 179.633,154.800 178.445,154.800 178.185 C 154.800 177.933,154.504 177.990,152.266 178.674 M207.600 179.000 C 208.370 179.297,209.270 179.539,209.600 179.539 C 209.930 179.539,209.570 179.297,208.800 179.000 C 208.030 178.703,207.130 178.461,206.800 178.461 C 206.470 178.461,206.830 178.703,207.600 179.000 M265.714 180.200 C 265.717 181.300,265.795 181.703,265.887 181.095 C 265.979 180.486,265.977 179.586,265.882 179.095 C 265.787 178.603,265.711 179.100,265.714 180.200 M145.400 180.589 C 143.252 181.297,144.097 181.324,146.600 180.628 C 147.700 180.322,148.240 180.069,147.800 180.067 C 147.360 180.064,146.280 180.299,145.400 180.589 M212.600 180.346 C 213.771 180.834,216.326 181.258,215.600 180.844 C 215.270 180.656,214.280 180.392,213.400 180.258 C 212.391 180.103,212.095 180.136,212.600 180.346 M102.109 182.400 C 102.109 183.390,102.187 183.795,102.282 183.300 C 102.378 182.805,102.378 181.995,102.282 181.500 C 102.187 181.005,102.109 181.410,102.109 182.400 M138.600 182.225 C 136.393 182.797,135.701 183.076,136.810 182.947 C 138.833 182.711,144.252 181.247,143.000 181.274 C 142.560 181.284,140.580 181.712,138.600 182.225 M218.836 181.976 C 220.066 182.363,222.046 182.784,223.236 182.912 C 225.266 183.130,225.301 183.119,223.800 182.744 C 217.268 181.113,214.951 180.754,218.836 181.976 M128.046 183.963 C 127.707 184.178,128.251 184.232,129.446 184.104 C 130.521 183.988,131.475 183.828,131.567 183.747 C 131.929 183.428,128.565 183.635,128.046 183.963 M228.833 183.744 C 228.925 183.823,229.900 183.991,231.000 184.118 C 232.287 184.267,232.715 184.226,232.200 184.003 C 231.436 183.672,228.486 183.445,228.833 183.744 M232.493 194.000 C 232.493 194.770,232.575 195.085,232.676 194.700 C 232.776 194.315,232.776 193.685,232.676 193.300 C 232.575 192.915,232.493 193.230,232.493 194.000 M127.693 194.400 C 127.693 195.170,127.775 195.485,127.876 195.100 C 127.976 194.715,127.976 194.085,127.876 193.700 C 127.775 193.315,127.693 193.630,127.693 194.400 M264.093 194.400 C 264.093 195.170,264.175 195.485,264.276 195.100 C 264.376 194.715,264.376 194.085,264.276 193.700 C 264.175 193.315,264.093 193.630,264.093 194.400 M151.300 194.596 C 149.421 195.413,149.698 195.714,151.620 194.945 C 155.533 193.380,157.600 195.886,157.600 202.193 C 157.600 207.260,157.045 208.959,155.115 209.797 C 154.392 210.112,154.075 210.376,154.411 210.384 C 159.085 210.504,159.610 196.500,155.004 194.576 C 153.326 193.875,152.956 193.877,151.300 194.596 M207.379 194.604 C 205.212 195.703,204.800 196.945,204.800 202.382 C 204.800 208.297,205.707 210.510,208.074 210.368 C 208.363 210.351,208.142 210.168,207.583 209.963 C 205.657 209.254,205.200 207.783,205.200 202.292 C 205.200 195.826,206.834 193.497,210.479 194.767 C 211.251 195.037,211.618 195.058,211.378 194.818 C 210.637 194.077,208.632 193.970,207.379 194.604 M212.019 195.400 C 212.023 195.620,212.290 196.149,212.613 196.576 C 213.055 197.161,213.200 198.564,213.200 202.258 C 213.200 207.771,212.831 209.048,211.010 209.842 C 210.236 210.179,210.059 210.374,210.518 210.384 C 213.672 210.453,215.395 200.283,212.891 196.372 C 212.409 195.617,212.016 195.180,212.019 195.400 M232.055 196.400 C 232.020 196.950,231.729 198.382,231.410 199.581 C 231.091 200.781,230.902 201.836,230.991 201.924 C 231.325 202.258,232.447 197.564,232.287 196.505 C 232.127 195.447,232.117 195.443,232.055 196.400 M128.040 197.033 C 128.062 197.675,128.233 198.650,128.420 199.200 C 128.649 199.874,128.684 199.549,128.528 198.200 C 128.269 195.950,127.979 195.259,128.040 197.033 M149.214 196.774 C 148.542 198.030,148.689 207.024,149.404 208.408 C 150.018 209.596,151.122 210.413,152.074 210.384 C 152.363 210.376,152.056 210.132,151.390 209.842 C 150.725 209.552,149.960 208.830,149.690 208.238 C 149.085 206.910,149.025 197.875,149.614 196.774 C 149.842 196.348,149.938 196.000,149.828 196.000 C 149.718 196.000,149.442 196.348,149.214 196.774 M264.101 199.000 C 264.105 199.880,264.187 200.193,264.283 199.695 C 264.379 199.198,264.375 198.478,264.275 198.095 C 264.175 197.713,264.096 198.120,264.101 199.000 M172.661 199.902 C 172.558 200.068,173.339 200.203,174.397 200.202 C 175.455 200.201,176.238 200.065,176.137 199.900 C 175.897 199.508,172.903 199.510,172.661 199.902 M184.901 200.938 C 184.076 201.673,183.040 202.478,182.600 202.725 C 182.005 203.060,181.960 203.179,182.422 203.188 C 182.763 203.195,183.652 202.572,184.396 201.804 C 187.512 198.589,192.000 200.103,192.000 204.369 C 192.000 205.718,189.641 208.943,187.857 210.030 C 187.166 210.452,186.846 210.798,187.147 210.799 C 187.789 210.800,191.287 207.395,191.946 206.126 C 194.253 201.688,188.672 197.577,184.901 200.938 M129.025 201.457 C 129.270 202.856,130.752 206.841,130.781 206.178 C 130.792 205.946,130.351 204.506,129.803 202.978 C 129.254 201.450,128.904 200.766,129.025 201.457 M178.276 201.900 C 178.998 202.615,179.816 203.195,180.094 203.188 C 180.372 203.181,180.240 202.977,179.800 202.734 C 179.360 202.492,178.542 201.912,177.981 201.446 C 177.421 200.981,177.554 201.185,178.276 201.900 M170.249 202.615 C 170.112 202.973,170.021 203.746,170.046 204.333 C 170.080 205.132,170.170 204.998,170.404 203.800 C 170.735 202.100,170.662 201.540,170.249 202.615 M229.680 205.480 C 229.430 206.294,229.292 207.026,229.373 207.106 C 229.454 207.187,229.736 206.599,230.000 205.800 C 230.264 205.001,230.402 204.269,230.307 204.174 C 230.212 204.078,229.930 204.666,229.680 205.480 M171.192 207.000 C 172.412 208.713,173.448 209.699,174.600 210.244 C 175.260 210.556,175.440 210.584,175.000 210.306 C 174.560 210.028,173.395 208.990,172.411 208.000 C 171.427 207.010,170.879 206.560,171.192 207.000 M227.283 211.284 C 226.559 212.613,226.027 213.760,226.100 213.833 C 226.174 213.907,226.830 212.883,227.558 211.558 C 228.286 210.233,228.819 209.086,228.741 209.009 C 228.664 208.931,228.008 209.955,227.283 211.284 M185.522 211.011 C 185.406 211.128,184.521 211.378,183.555 211.568 C 182.159 211.842,182.045 211.918,183.000 211.938 C 184.110 211.962,187.137 210.905,186.167 210.832 C 185.928 210.815,185.638 210.895,185.522 211.011 M177.400 211.600 C 177.840 211.789,178.740 211.935,179.400 211.925 L 180.600 211.905 179.400 211.600 C 178.740 211.432,177.840 211.286,177.400 211.275 L 176.600 211.256 177.400 211.600 M132.801 211.833 C 132.804 212.326,134.326 214.800,134.627 214.800 C 134.758 214.800,134.459 214.125,133.963 213.300 C 132.843 211.437,132.800 211.383,132.801 211.833 M224.405 216.592 C 223.715 217.797,222.990 218.882,222.794 219.004 C 222.598 219.125,222.052 219.804,221.581 220.512 C 220.963 221.442,221.161 221.312,222.294 220.043 C 223.760 218.400,226.283 214.400,225.852 214.400 C 225.746 214.400,225.094 215.386,224.405 216.592 M140.125 222.600 C 142.660 225.726,145.256 228.396,144.600 227.200 C 144.418 226.870,143.414 225.700,142.368 224.600 C 141.321 223.500,139.805 221.880,138.998 221.000 C 138.191 220.120,138.698 220.840,140.125 222.600 M218.088 224.511 C 216.720 225.892,215.600 227.172,215.600 227.356 C 215.600 227.637,217.435 225.813,220.284 222.700 C 221.837 221.002,220.351 222.228,218.088 224.511 M290.000 225.645 C 290.770 226.108,291.715 226.765,292.100 227.106 C 292.485 227.446,292.800 227.607,292.800 227.465 C 292.800 227.092,289.564 224.800,289.040 224.801 C 288.798 224.802,289.230 225.182,290.000 225.645 M146.065 228.466 C 149.054 231.089,150.903 232.401,154.570 234.500 C 156.779 235.765,158.770 236.793,158.994 236.784 C 159.217 236.775,158.860 236.486,158.200 236.141 C 154.663 234.291,150.456 231.743,149.400 230.812 C 148.740 230.229,147.480 229.253,146.600 228.642 C 145.439 227.837,145.292 227.788,146.065 228.466 M212.800 229.388 C 210.767 231.011,208.139 232.713,203.600 235.348 C 202.610 235.922,201.998 236.394,202.240 236.396 C 202.846 236.401,209.853 232.150,211.735 230.636 C 214.478 228.429,215.404 227.625,215.200 227.629 C 215.090 227.631,214.010 228.423,212.800 229.388 M308.800 229.000 C 309.546 229.770,310.247 230.400,310.357 230.400 C 310.467 230.400,309.946 229.770,309.200 229.000 C 308.454 228.230,307.753 227.600,307.643 227.600 C 307.533 227.600,308.054 228.230,308.800 229.000 M93.665 229.417 C 92.995 230.888,93.123 231.202,93.847 229.865 C 94.186 229.240,94.388 228.654,94.296 228.563 C 94.205 228.471,93.921 228.856,93.665 229.417 M368.105 229.487 C 368.714 229.579,369.614 229.577,370.105 229.482 C 370.597 229.387,370.100 229.311,369.000 229.314 C 367.900 229.317,367.497 229.395,368.105 229.487 M311.800 232.400 C 312.659 233.280,313.452 234.000,313.562 234.000 C 313.672 234.000,313.059 233.280,312.200 232.400 C 311.341 231.520,310.548 230.800,310.438 230.800 C 310.328 230.800,310.941 231.520,311.800 232.400 M302.400 235.400 C 304.481 237.490,306.274 239.200,306.384 239.200 C 306.494 239.200,304.881 237.490,302.800 235.400 C 300.719 233.310,298.926 231.600,298.816 231.600 C 298.706 231.600,300.319 233.310,302.400 235.400 M276.109 234.400 C 276.109 235.390,276.187 235.795,276.282 235.300 C 276.378 234.805,276.378 233.995,276.282 233.500 C 276.187 233.005,276.109 233.410,276.109 234.400 M220.775 234.229 C 220.239 234.801,218.630 236.098,217.200 237.110 C 213.925 239.430,214.152 238.997,213.832 243.540 C 213.683 245.663,213.286 249.160,212.951 251.312 C 212.615 253.463,212.410 255.429,212.494 255.681 C 212.720 256.361,213.949 248.318,214.217 244.400 C 214.558 239.417,214.561 239.411,217.318 237.444 C 218.699 236.458,220.166 235.280,220.577 234.826 C 221.571 233.727,221.896 233.784,222.145 235.100 C 222.259 235.705,222.667 237.900,223.050 239.978 C 223.434 242.057,223.815 243.554,223.898 243.306 C 224.107 242.678,222.477 233.917,222.076 233.516 C 221.896 233.336,221.311 233.657,220.775 234.229 M315.600 237.000 C 316.346 237.770,317.047 238.400,317.157 238.400 C 317.267 238.400,316.746 237.770,316.000 237.000 C 315.254 236.230,314.553 235.600,314.443 235.600 C 314.333 235.600,314.854 236.230,315.600 237.000 M160.000 237.133 C 160.330 237.336,161.050 237.624,161.600 237.771 C 162.295 237.957,162.417 237.925,162.000 237.667 C 161.670 237.464,160.950 237.176,160.400 237.029 C 159.705 236.843,159.583 236.875,160.000 237.133 M199.000 237.414 C 198.000 237.896,197.966 237.951,198.800 237.748 C 199.933 237.471,201.207 236.821,200.600 236.830 C 200.380 236.833,199.660 237.096,199.000 237.414 M367.900 238.282 C 368.395 238.378,369.205 238.378,369.700 238.282 C 370.195 238.187,369.790 238.109,368.800 238.109 C 367.810 238.109,367.405 238.187,367.900 238.282 M164.800 238.717 C 165.646 239.242,170.770 240.564,171.013 240.320 C 171.124 240.209,170.086 239.829,168.707 239.474 C 164.330 238.349,164.150 238.314,164.800 238.717 M194.000 238.850 C 193.450 239.070,192.100 239.452,191.000 239.700 C 189.900 239.947,189.281 240.212,189.624 240.289 C 189.967 240.366,191.587 239.991,193.224 239.454 C 194.861 238.918,195.930 238.473,195.600 238.465 C 195.270 238.457,194.550 238.631,194.000 238.850 M371.800 238.652 C 372.020 238.845,372.920 239.632,373.799 240.401 L 375.398 241.800 374.199 240.466 C 373.540 239.732,372.640 238.945,372.200 238.717 C 371.760 238.489,371.580 238.460,371.800 238.652 M173.023 240.853 C 174.639 241.200,185.041 241.218,186.958 240.877 C 187.815 240.725,184.766 240.600,180.181 240.600 C 175.596 240.600,172.375 240.714,173.023 240.853 M148.800 243.326 C 148.800 244.924,148.919 245.120,150.400 245.952 C 152.367 247.057,152.540 246.798,150.600 245.653 C 149.420 244.957,149.200 244.605,149.200 243.413 C 149.200 241.632,148.993 241.588,154.725 244.590 C 155.454 244.971,156.129 245.204,156.226 245.108 C 156.447 244.887,149.943 241.600,149.285 241.600 C 148.980 241.600,148.800 242.241,148.800 243.326 M204.272 245.112 C 204.631 245.341,204.603 246.354,204.153 249.378 C 203.829 251.559,203.618 253.716,203.686 254.172 C 203.814 255.037,205.204 247.269,205.201 245.700 C 205.200 245.108,204.961 244.802,204.500 244.806 C 204.035 244.810,203.959 244.913,204.272 245.112 M157.844 245.782 C 158.528 246.098,159.608 246.459,160.244 246.584 C 161.233 246.779,161.198 246.733,160.000 246.263 C 157.840 245.416,156.313 245.076,157.844 245.782 M201.000 246.027 C 199.367 246.652,199.257 246.747,200.400 246.545 C 202.054 246.253,203.600 245.705,203.600 245.410 C 203.600 245.093,203.184 245.191,201.000 246.027 M224.487 247.000 C 224.491 247.440,224.632 248.340,224.800 249.000 C 225.074 250.078,225.106 250.098,225.113 249.200 C 225.117 248.650,224.976 247.750,224.800 247.200 C 224.549 246.416,224.481 246.373,224.487 247.000 M278.501 247.800 C 278.505 248.680,278.587 248.993,278.683 248.495 C 278.779 247.998,278.775 247.278,278.675 246.895 C 278.575 246.513,278.496 246.920,278.501 247.800 M156.000 250.327 C 158.090 252.328,160.070 253.967,160.400 253.968 C 160.773 253.970,160.661 253.783,160.105 253.474 C 159.613 253.201,157.993 251.808,156.505 250.379 C 155.017 248.950,153.440 247.535,153.000 247.235 C 152.560 246.935,153.910 248.326,156.000 250.327 M193.800 248.009 C 191.380 248.638,188.911 249.163,188.314 249.176 C 187.058 249.204,186.620 249.881,186.237 252.385 C 185.888 254.662,186.293 254.284,186.919 251.747 C 187.321 250.119,187.564 249.782,188.400 249.693 C 190.238 249.497,198.195 247.512,198.580 247.154 C 199.118 246.653,198.786 246.712,193.800 248.009 M163.800 247.643 C 164.460 247.852,165.540 248.191,166.200 248.396 C 166.860 248.601,168.210 248.861,169.200 248.973 L 171.000 249.178 169.000 248.612 C 164.425 247.317,160.405 246.568,163.800 247.643 M89.340 251.600 C 89.340 253.470,89.409 254.235,89.493 253.300 C 89.577 252.365,89.577 250.835,89.493 249.900 C 89.409 248.965,89.340 249.730,89.340 251.600 M171.333 249.817 C 171.333 250.185,171.562 250.347,171.899 250.217 C 172.211 250.098,172.541 250.000,172.633 250.000 C 172.725 250.000,172.800 249.820,172.800 249.600 C 172.800 249.380,172.470 249.200,172.067 249.200 C 171.663 249.200,171.333 249.478,171.333 249.817 M166.842 252.076 C 165.069 252.997,163.693 253.826,163.784 253.917 C 163.875 254.009,164.546 253.764,165.275 253.373 C 166.004 252.983,167.590 252.158,168.800 251.541 C 170.010 250.923,170.790 250.414,170.532 250.409 C 170.275 250.404,168.614 251.154,166.842 252.076 M373.265 254.617 C 372.595 256.088,372.723 256.402,373.447 255.065 C 373.786 254.440,373.988 253.854,373.896 253.763 C 373.805 253.671,373.521 254.056,373.265 254.617 M226.202 255.200 C 226.587 257.023,228.030 260.903,228.244 260.689 C 228.420 260.514,226.446 254.344,226.105 254.000 C 225.996 253.890,226.039 254.430,226.202 255.200 M278.501 255.800 C 278.505 256.680,278.587 256.993,278.683 256.495 C 278.779 255.998,278.775 255.278,278.675 254.895 C 278.575 254.513,278.496 254.920,278.501 255.800 M184.682 258.267 C 180.042 273.005,170.208 282.625,154.000 288.282 C 151.250 289.242,149.720 289.924,150.600 289.797 C 158.341 288.682,172.453 280.288,176.340 274.487 C 176.888 273.669,177.568 272.860,177.851 272.690 C 179.622 271.622,186.448 256.743,185.909 255.126 C 185.841 254.924,185.289 256.338,184.682 258.267 M202.604 258.278 C 202.226 259.995,201.598 262.210,201.207 263.200 C 200.816 264.190,199.838 266.710,199.035 268.800 C 194.897 279.566,186.409 289.913,176.086 296.774 C 173.075 298.775,171.626 300.260,174.354 298.548 C 188.944 289.394,200.266 273.336,203.199 257.635 C 203.825 254.289,203.374 254.776,202.604 258.278 M149.338 256.617 C 149.208 256.957,149.213 257.347,149.351 257.484 C 149.488 257.621,149.600 257.398,149.600 256.988 C 149.600 256.374,149.863 256.485,151.100 257.622 L 152.600 259.000 151.222 257.500 C 149.646 255.786,149.655 255.790,149.338 256.617 M211.251 260.562 C 210.400 263.942,210.451 264.021,213.300 263.746 C 217.432 263.347,219.021 262.828,215.400 263.059 C 213.640 263.172,211.975 263.334,211.700 263.420 C 211.089 263.609,211.066 262.698,211.631 260.662 C 211.866 259.817,211.978 259.045,211.881 258.947 C 211.783 258.849,211.500 259.576,211.251 260.562 M225.945 260.988 C 225.842 261.092,224.777 261.440,223.579 261.762 C 221.982 262.191,221.721 262.346,222.600 262.343 C 224.001 262.337,228.217 260.878,226.967 260.831 C 226.508 260.814,226.049 260.885,225.945 260.988 M281.228 264.200 C 281.228 264.420,281.486 265.050,281.800 265.600 C 282.114 266.150,282.372 266.420,282.372 266.200 C 282.372 265.980,282.114 265.350,281.800 264.800 C 281.486 264.250,281.228 263.980,281.228 264.200 M140.654 267.870 C 140.903 268.051,141.207 268.560,141.328 269.000 C 141.501 269.631,141.532 269.595,141.474 268.831 C 141.433 268.299,141.130 267.790,140.800 267.701 C 140.404 267.594,140.354 267.651,140.654 267.870 M135.600 270.000 C 134.830 270.422,134.380 270.766,134.600 270.766 C 134.820 270.766,135.630 270.422,136.400 270.000 C 137.170 269.578,137.620 269.234,137.400 269.234 C 137.180 269.234,136.370 269.578,135.600 270.000 M150.493 271.600 C 150.493 272.370,150.575 272.685,150.676 272.300 C 150.776 271.915,150.776 271.285,150.676 270.900 C 150.575 270.515,150.493 270.830,150.493 271.600 M221.000 271.200 C 219.981 271.638,221.032 271.638,222.400 271.200 C 223.204 270.943,223.243 270.877,222.600 270.868 C 222.160 270.862,221.440 271.011,221.000 271.200 M306.581 272.900 L 305.000 274.600 306.700 273.019 C 308.281 271.548,308.584 271.200,308.281 271.200 C 308.216 271.200,307.451 271.965,306.581 272.900 M141.656 272.400 C 141.640 272.950,141.888 274.840,142.206 276.600 C 142.524 278.360,142.788 280.295,142.792 280.900 C 142.796 281.505,142.975 282.000,143.190 282.000 C 143.405 282.000,143.481 281.505,143.361 280.900 C 143.240 280.295,142.813 277.910,142.412 275.600 C 142.011 273.290,141.671 271.850,141.656 272.400 M213.505 272.283 C 214.002 272.379,214.722 272.375,215.105 272.275 C 215.487 272.175,215.080 272.096,214.200 272.101 C 213.320 272.105,213.007 272.187,213.505 272.283 M208.700 272.682 C 209.195 272.778,210.005 272.778,210.500 272.682 C 210.995 272.587,210.590 272.509,209.600 272.509 C 208.610 272.509,208.205 272.587,208.700 272.682 M121.600 274.000 C 120.256 274.431,121.708 274.431,123.400 274.000 C 124.478 273.726,124.498 273.694,123.600 273.687 C 123.050 273.683,122.150 273.824,121.600 274.000 M315.781 275.700 L 314.200 277.400 315.994 275.800 C 316.980 274.920,317.865 274.155,317.961 274.100 C 318.056 274.045,317.960 274.000,317.748 274.000 C 317.536 274.000,316.651 274.765,315.781 275.700 M115.200 274.865 C 113.770 275.064,109.180 275.373,105.000 275.551 L 97.400 275.875 103.000 275.929 C 108.208 275.980,119.008 275.125,119.512 274.622 C 119.798 274.335,118.443 274.412,115.200 274.865 M303.578 276.300 L 302.200 277.800 303.700 276.422 C 305.096 275.138,305.384 274.800,305.078 274.800 C 305.012 274.800,304.337 275.475,303.578 276.300 M290.000 277.800 C 291.195 279.010,292.263 280.000,292.373 280.000 C 292.483 280.000,291.595 279.010,290.400 277.800 C 289.205 276.590,288.137 275.600,288.027 275.600 C 287.917 275.600,288.805 276.590,290.000 277.800 M330.520 277.600 C 330.520 278.810,330.595 279.305,330.687 278.700 C 330.778 278.095,330.778 277.105,330.687 276.500 C 330.595 275.895,330.520 276.390,330.520 277.600 M358.800 278.600 C 357.161 280.250,355.910 281.600,356.020 281.600 C 356.130 281.600,357.561 280.250,359.200 278.600 C 360.839 276.950,362.090 275.600,361.980 275.600 C 361.870 275.600,360.439 276.950,358.800 278.600 M93.985 277.629 L 92.600 278.858 94.200 277.745 C 95.080 277.133,95.875 276.580,95.967 276.516 C 96.058 276.452,95.962 276.400,95.752 276.400 C 95.542 276.400,94.747 276.953,93.985 277.629 M321.709 278.000 C 321.709 278.990,321.787 279.395,321.882 278.900 C 321.978 278.405,321.978 277.595,321.882 277.100 C 321.787 276.605,321.709 277.010,321.709 278.000 M154.400 278.800 C 153.630 279.222,153.144 279.574,153.320 279.583 C 153.744 279.605,156.000 278.432,156.000 278.190 C 156.000 277.928,155.977 277.937,154.400 278.800 M299.400 279.878 C 298.300 280.894,297.760 281.532,298.200 281.295 C 298.962 280.886,301.953 277.983,301.578 278.016 C 301.480 278.025,300.500 278.863,299.400 279.878 M91.852 280.900 C 91.517 282.151,91.551 285.305,91.906 285.860 C 92.068 286.113,92.200 284.898,92.200 283.160 C 92.200 279.659,92.194 279.623,91.852 280.900 M321.301 281.800 C 321.305 282.680,321.387 282.993,321.483 282.495 C 321.579 281.998,321.575 281.278,321.475 280.895 C 321.375 280.513,321.296 280.920,321.301 281.800 M265.381 282.500 L 263.800 284.200 265.500 282.619 C 267.081 281.148,267.384 280.800,267.081 280.800 C 267.016 280.800,266.251 281.565,265.381 282.500 M330.093 282.400 C 330.093 283.170,330.175 283.485,330.276 283.100 C 330.376 282.715,330.376 282.085,330.276 281.700 C 330.175 281.315,330.093 281.630,330.093 282.400 M138.800 282.400 L 137.000 282.680 138.600 282.693 C 139.480 282.700,140.740 282.568,141.400 282.400 C 143.000 281.993,141.419 281.993,138.800 282.400 M122.311 283.093 C 123.251 283.178,124.691 283.177,125.511 283.091 C 126.330 283.005,125.560 282.936,123.800 282.937 C 122.040 282.939,121.370 283.009,122.311 283.093 M132.300 283.089 C 133.015 283.178,134.185 283.178,134.900 283.089 C 135.615 283.001,135.030 282.928,133.600 282.928 C 132.170 282.928,131.585 283.001,132.300 283.089 M116.533 283.922 C 115.616 284.295,114.716 284.750,114.533 284.933 C 114.350 285.117,115.100 284.917,116.200 284.490 C 117.300 284.062,118.470 283.611,118.800 283.488 C 119.333 283.288,119.333 283.262,118.800 283.254 C 118.470 283.249,117.450 283.550,116.533 283.922 M352.200 284.250 C 351.481 284.862,351.334 285.105,351.833 284.857 C 352.566 284.493,353.941 283.176,353.549 283.214 C 353.467 283.222,352.860 283.688,352.200 284.250 M240.000 284.125 C 240.000 284.194,240.585 284.779,241.300 285.425 L 242.600 286.600 241.425 285.300 C 240.330 284.088,240.000 283.816,240.000 284.125 M111.483 286.836 C 110.658 287.516,109.715 288.641,109.386 289.336 C 109.057 290.031,109.016 290.240,109.294 289.800 C 109.572 289.360,110.590 288.235,111.556 287.300 C 113.621 285.300,113.590 285.099,111.483 286.836 M362.975 286.900 L 361.800 288.200 363.100 287.025 C 363.815 286.379,364.400 285.794,364.400 285.725 C 364.400 285.416,364.070 285.688,362.975 286.900 M93.126 287.847 C 93.833 288.881,96.000 290.724,96.000 290.293 C 96.000 290.223,95.161 289.364,94.136 288.383 C 92.609 286.922,92.426 286.825,93.126 287.847 M320.240 288.440 C 320.093 289.357,320.052 290.185,320.147 290.280 C 320.242 290.376,320.446 289.710,320.600 288.800 C 320.754 287.890,320.796 287.062,320.693 286.960 C 320.590 286.857,320.387 287.523,320.240 288.440 M329.293 288.000 C 329.293 288.770,329.375 289.085,329.476 288.700 C 329.576 288.315,329.576 287.685,329.476 287.300 C 329.375 286.915,329.293 287.230,329.293 288.000 M195.978 291.100 L 194.600 292.600 196.100 291.222 C 197.496 289.938,197.784 289.600,197.478 289.600 C 197.412 289.600,196.737 290.275,195.978 291.100 M142.600 290.843 C 139.002 291.360,138.650 291.584,141.805 291.348 C 145.072 291.103,148.284 290.476,146.200 290.490 C 145.540 290.494,143.920 290.653,142.600 290.843 M107.970 291.656 C 107.544 292.451,107.282 292.497,104.256 292.306 C 102.445 292.191,101.533 292.234,102.200 292.403 C 105.110 293.137,107.841 292.868,108.327 291.800 C 108.883 290.580,108.606 290.468,107.970 291.656 M126.800 291.980 C 121.254 292.177,120.445 292.297,119.128 293.115 C 111.678 297.748,114.328 308.067,123.200 308.976 L 125.400 309.201 122.869 308.620 C 117.263 307.331,114.460 303.553,115.596 298.818 C 116.864 293.532,118.687 292.675,129.284 292.383 C 133.620 292.263,137.295 292.038,137.450 291.883 C 137.606 291.727,136.668 291.636,135.367 291.680 C 134.065 291.724,130.210 291.859,126.800 291.980 M192.581 294.900 L 191.000 296.600 192.700 295.019 C 194.281 293.548,194.584 293.200,194.281 293.200 C 194.216 293.200,193.451 293.965,192.581 294.900 M259.000 297.414 C 259.660 297.717,260.470 297.958,260.800 297.952 C 261.130 297.945,260.770 297.697,260.000 297.400 C 258.174 296.697,257.455 296.707,259.000 297.414 M269.500 299.082 C 269.995 299.178,270.805 299.178,271.300 299.082 C 271.795 298.987,271.390 298.909,270.400 298.909 C 269.410 298.909,269.005 298.987,269.500 299.082 M168.400 300.979 C 166.530 301.922,164.370 302.990,163.600 303.351 C 162.657 303.794,162.526 303.933,163.200 303.777 C 164.430 303.494,172.400 299.716,172.400 299.416 C 172.400 299.025,171.837 299.245,168.400 300.979 M185.375 301.300 L 184.200 302.600 185.500 301.425 C 186.712 300.330,186.984 300.000,186.675 300.000 C 186.606 300.000,186.021 300.585,185.375 301.300 M102.900 301.476 C 103.285 301.576,103.915 301.576,104.300 301.476 C 104.685 301.375,104.370 301.293,103.600 301.293 C 102.830 301.293,102.515 301.375,102.900 301.476 M157.600 305.043 C 155.730 305.585,153.480 306.225,152.600 306.463 C 149.501 307.303,148.863 307.623,150.743 307.391 C 152.403 307.187,161.572 304.561,161.952 304.181 C 162.330 303.803,160.884 304.089,157.600 305.043 M142.600 308.214 C 140.400 308.495,137.610 308.768,136.400 308.822 C 134.933 308.887,134.600 308.979,135.400 309.099 C 136.768 309.303,145.491 308.532,147.600 308.021 C 149.758 307.498,147.549 307.584,142.600 308.214 M127.900 309.482 C 128.395 309.578,129.205 309.578,129.700 309.482 C 130.195 309.387,129.790 309.309,128.800 309.309 C 127.810 309.309,127.405 309.387,127.900 309.482 M169.600 310.400 C 168.830 310.822,168.380 311.166,168.600 311.166 C 168.820 311.166,169.630 310.822,170.400 310.400 C 171.170 309.978,171.620 309.634,171.400 309.634 C 171.180 309.634,170.370 309.978,169.600 310.400 M114.400 315.164 C 114.950 315.614,115.580 315.983,115.800 315.985 C 116.228 315.988,115.505 315.434,114.200 314.760 C 113.669 314.485,113.736 314.621,114.400 315.164 M176.400 337.325 C 176.400 337.394,176.985 337.979,177.700 338.625 L 179.000 339.800 177.825 338.500 C 176.730 337.288,176.400 337.016,176.400 337.325 M180.000 340.925 C 180.000 340.994,180.585 341.579,181.300 342.225 L 182.600 343.400 181.425 342.100 C 180.330 340.888,180.000 340.616,180.000 340.925 M297.633 342.521 C 297.725 342.588,298.340 342.958,299.000 343.345 L 300.200 344.047 299.256 343.224 C 298.736 342.771,298.121 342.400,297.889 342.400 C 297.657 342.400,297.542 342.454,297.633 342.521 M290.200 345.868 C 289.320 346.657,288.960 347.116,289.400 346.888 C 290.141 346.504,292.351 344.379,291.970 344.417 C 291.876 344.426,291.080 345.079,290.200 345.868 M300.501 346.600 C 300.505 347.480,300.587 347.793,300.683 347.295 C 300.779 346.798,300.775 346.078,300.675 345.695 C 300.575 345.313,300.496 345.720,300.501 346.600 M176.400 349.325 C 176.400 349.394,176.985 349.979,177.700 350.625 L 179.000 351.800 177.825 350.500 C 176.730 349.288,176.400 349.016,176.400 349.325 M283.800 350.235 L 282.600 351.266 284.000 350.363 C 285.796 349.204,285.801 349.200,285.367 349.202 C 285.165 349.203,284.460 349.668,283.800 350.235 M232.900 361.898 C 235.045 361.970,238.555 361.970,240.700 361.898 C 242.845 361.826,241.090 361.767,236.800 361.767 C 232.510 361.767,230.755 361.826,232.900 361.898 M226.500 370.276 C 226.885 370.376,227.515 370.376,227.900 370.276 C 228.285 370.175,227.970 370.093,227.200 370.093 C 226.430 370.093,226.115 370.175,226.500 370.276 M246.100 370.276 C 246.485 370.376,247.115 370.376,247.500 370.276 C 247.885 370.175,247.570 370.093,246.800 370.093 C 246.030 370.093,245.715 370.175,246.100 370.276 M233.519 370.698 C 235.344 370.772,238.224 370.772,239.919 370.697 C 241.614 370.622,240.120 370.561,236.600 370.562 C 233.080 370.562,231.694 370.624,233.519 370.698 " stroke="none" fill="#617169" fill-rule="evenodd"></path><path id="path6" d="M126.400 117.800 C 124.761 119.450,123.510 120.800,123.620 120.800 C 123.730 120.800,125.161 119.450,126.800 117.800 C 128.439 116.150,129.690 114.800,129.580 114.800 C 129.470 114.800,128.039 116.150,126.400 117.800 M266.153 175.000 C 266.153 177.640,266.218 178.668,266.297 177.284 C 266.375 175.901,266.374 173.741,266.295 172.484 C 266.216 171.228,266.152 172.360,266.153 175.000 M204.551 202.400 C 204.551 204.930,204.616 205.965,204.696 204.700 C 204.775 203.435,204.775 201.365,204.696 200.100 C 204.616 198.835,204.551 199.870,204.551 202.400 M280.700 213.889 C 281.415 213.978,282.585 213.978,283.300 213.889 C 284.015 213.801,283.430 213.728,282.000 213.728 C 280.570 213.728,279.985 213.801,280.700 213.889 M282.700 223.482 C 283.195 223.578,284.005 223.578,284.500 223.482 C 284.995 223.387,284.590 223.309,283.600 223.309 C 282.610 223.309,282.205 223.387,282.700 223.482 M306.000 226.200 C 306.746 226.970,307.447 227.600,307.557 227.600 C 307.667 227.600,307.146 226.970,306.400 226.200 C 305.654 225.430,304.953 224.800,304.843 224.800 C 304.733 224.800,305.254 225.430,306.000 226.200 M325.507 254.290 C 326.226 254.379,327.306 254.377,327.907 254.286 C 328.508 254.195,327.920 254.122,326.600 254.124 C 325.280 254.126,324.788 254.201,325.507 254.290 M161.700 263.076 C 162.085 263.176,162.715 263.176,163.100 263.076 C 163.485 262.975,163.170 262.893,162.400 262.893 C 161.630 262.893,161.315 262.975,161.700 263.076 M317.700 265.076 C 318.085 265.176,318.715 265.176,319.100 265.076 C 319.485 264.975,319.170 264.893,318.400 264.893 C 317.630 264.893,317.315 264.975,317.700 265.076 M87.775 271.300 L 86.600 272.600 87.900 271.425 C 89.112 270.330,89.384 270.000,89.075 270.000 C 89.006 270.000,88.421 270.585,87.775 271.300 M127.100 318.296 C 128.475 318.374,130.725 318.374,132.100 318.296 C 133.475 318.218,132.350 318.154,129.600 318.154 C 126.850 318.154,125.725 318.218,127.100 318.296 M228.500 370.676 C 228.885 370.776,229.515 370.776,229.900 370.676 C 230.285 370.575,229.970 370.493,229.200 370.493 C 228.430 370.493,228.115 370.575,228.500 370.676 M243.500 370.682 C 243.995 370.778,244.805 370.778,245.300 370.682 C 245.795 370.587,245.390 370.509,244.400 370.509 C 243.410 370.509,243.005 370.587,243.500 370.682 " stroke="none" fill="#568699" fill-rule="evenodd"></path><path id="path7" d="M245.400 122.000 C 246.259 122.880,247.052 123.600,247.162 123.600 C 247.272 123.600,246.659 122.880,245.800 122.000 C 244.941 121.120,244.148 120.400,244.038 120.400 C 243.928 120.400,244.541 121.120,245.400 122.000 M111.300 141.876 C 111.685 141.976,112.315 141.976,112.700 141.876 C 113.085 141.775,112.770 141.693,112.000 141.693 C 111.230 141.693,110.915 141.775,111.300 141.876 M266.093 169.200 C 266.093 169.970,266.175 170.285,266.276 169.900 C 266.376 169.515,266.376 168.885,266.276 168.500 C 266.175 168.115,266.093 168.430,266.093 169.200 M266.101 181.000 C 266.105 181.880,266.187 182.193,266.283 181.695 C 266.379 181.198,266.375 180.478,266.275 180.095 C 266.175 179.713,266.096 180.120,266.101 181.000 M265.701 184.600 C 265.705 185.480,265.787 185.793,265.883 185.295 C 265.979 184.798,265.975 184.078,265.875 183.695 C 265.775 183.313,265.696 183.720,265.701 184.600 M264.493 194.400 C 264.493 195.170,264.575 195.485,264.676 195.100 C 264.776 194.715,264.776 194.085,264.676 193.700 C 264.575 193.315,264.493 193.630,264.493 194.400 M264.501 199.000 C 264.505 199.880,264.587 200.193,264.683 199.695 C 264.779 199.198,264.775 198.478,264.675 198.095 C 264.575 197.713,264.496 198.120,264.501 199.000 M271.478 219.013 C 270.860 219.556,270.514 220.000,270.708 220.000 C 270.902 220.000,271.483 219.550,272.000 219.000 C 273.195 217.728,272.931 217.734,271.478 219.013 M368.105 229.087 C 368.714 229.179,369.614 229.177,370.105 229.082 C 370.597 228.987,370.100 228.911,369.000 228.914 C 367.900 228.917,367.497 228.995,368.105 229.087 M276.493 234.400 C 276.493 235.170,276.575 235.485,276.676 235.100 C 276.776 234.715,276.776 234.085,276.676 233.700 C 276.575 233.315,276.493 233.630,276.493 234.400 M384.934 245.200 C 384.934 246.850,385.005 247.525,385.091 246.700 C 385.178 245.875,385.178 244.525,385.091 243.700 C 385.005 242.875,384.934 243.550,384.934 245.200 M326.800 244.800 L 324.600 245.070 326.600 245.129 C 327.700 245.161,328.870 245.013,329.200 244.800 C 329.530 244.587,329.620 244.439,329.400 244.471 C 329.180 244.504,328.010 244.652,326.800 244.800 M88.937 251.800 C 88.939 253.560,89.009 254.230,89.093 253.289 C 89.178 252.349,89.177 250.909,89.091 250.089 C 89.005 249.270,88.936 250.040,88.937 251.800 M85.729 273.300 C 85.284 273.795,84.776 274.470,84.601 274.800 C 84.263 275.437,84.355 275.350,85.976 273.500 C 86.506 272.895,86.849 272.400,86.739 272.400 C 86.629 272.400,86.175 272.805,85.729 273.300 M315.978 275.900 L 314.600 277.400 316.196 276.000 C 317.073 275.230,317.868 274.555,317.962 274.500 C 318.056 274.445,317.959 274.400,317.745 274.400 C 317.532 274.400,316.737 275.075,315.978 275.900 M319.200 274.684 C 319.530 274.805,320.160 275.196,320.600 275.552 C 321.393 276.194,321.394 276.192,320.638 275.300 C 320.219 274.805,319.589 274.414,319.238 274.432 C 318.696 274.458,318.691 274.497,319.200 274.684 M321.301 277.800 C 321.305 278.680,321.387 278.993,321.483 278.495 C 321.579 277.998,321.575 277.278,321.475 276.895 C 321.375 276.513,321.296 276.920,321.301 277.800 M357.578 279.500 L 356.200 281.000 357.700 279.622 C 359.096 278.338,359.384 278.000,359.078 278.000 C 359.012 278.000,358.337 278.675,357.578 279.500 M311.781 280.900 L 310.200 282.600 311.900 281.019 C 312.835 280.149,313.600 279.384,313.600 279.319 C 313.600 279.016,313.252 279.319,311.781 280.900 M266.778 281.500 L 265.400 283.000 266.900 281.622 C 268.296 280.338,268.584 280.000,268.278 280.000 C 268.212 280.000,267.537 280.675,266.778 281.500 M320.901 281.800 C 320.905 282.680,320.987 282.993,321.083 282.495 C 321.179 281.998,321.175 281.278,321.075 280.895 C 320.975 280.513,320.896 280.920,320.901 281.800 M307.200 285.270 C 305.668 286.688,305.486 286.939,306.600 286.097 C 308.084 284.976,309.934 283.178,309.562 283.217 C 309.473 283.227,308.410 284.151,307.200 285.270 M362.400 287.800 C 361.428 288.790,360.723 289.600,360.833 289.600 C 360.943 289.600,361.828 288.790,362.800 287.800 C 363.772 286.810,364.477 286.000,364.367 286.000 C 364.257 286.000,363.372 286.810,362.400 287.800 M303.000 288.623 C 302.254 289.256,302.115 289.491,302.633 289.243 C 303.376 288.887,304.725 287.597,304.349 287.602 C 304.267 287.603,303.660 288.063,303.000 288.623 M266.500 289.876 C 266.885 289.976,267.515 289.976,267.900 289.876 C 268.285 289.775,267.970 289.693,267.200 289.693 C 266.430 289.693,266.115 289.775,266.500 289.876 M270.691 290.289 C 271.401 290.377,272.661 290.379,273.491 290.292 C 274.321 290.205,273.740 290.133,272.200 290.131 C 270.660 290.129,269.981 290.200,270.691 290.289 M296.900 292.396 C 295.560 293.213,295.053 293.929,296.300 293.243 C 297.229 292.733,298.652 291.628,298.400 291.614 C 298.290 291.608,297.615 291.960,296.900 292.396 M192.581 295.300 L 191.000 297.000 192.700 295.419 C 194.281 293.948,194.584 293.600,194.281 293.600 C 194.216 293.600,193.451 294.365,192.581 295.300 M289.200 295.834 C 287.890 296.370,287.877 296.392,289.000 296.175 C 289.660 296.048,290.371 295.776,290.580 295.572 C 291.059 295.103,290.921 295.129,289.200 295.834 M269.505 299.483 C 270.002 299.579,270.722 299.575,271.105 299.475 C 271.487 299.375,271.080 299.296,270.200 299.301 C 269.320 299.305,269.007 299.387,269.505 299.483 M102.500 301.876 C 102.885 301.976,103.515 301.976,103.900 301.876 C 104.285 301.775,103.970 301.693,103.200 301.693 C 102.430 301.693,102.115 301.775,102.500 301.876 M316.629 303.829 C 316.481 304.415,316.438 304.972,316.532 305.066 C 316.627 305.160,316.824 304.758,316.971 304.171 C 317.119 303.585,317.162 303.028,317.068 302.934 C 316.973 302.840,316.776 303.242,316.629 303.829 M109.200 311.325 C 109.200 311.394,109.785 311.979,110.500 312.625 L 111.800 313.800 110.625 312.500 C 109.530 311.288,109.200 311.016,109.200 311.325 M311.479 317.574 C 311.106 318.206,310.801 318.876,310.801 319.062 C 310.802 319.248,311.172 318.795,311.623 318.055 C 312.074 317.315,312.379 316.646,312.301 316.567 C 312.222 316.489,311.852 316.942,311.479 317.574 M122.900 318.276 C 123.285 318.376,123.915 318.376,124.300 318.276 C 124.685 318.175,124.370 318.093,123.600 318.093 C 122.830 318.093,122.515 318.175,122.900 318.276 M135.300 318.287 C 135.905 318.378,136.895 318.378,137.500 318.287 C 138.105 318.195,137.610 318.120,136.400 318.120 C 135.190 318.120,134.695 318.195,135.300 318.287 M307.066 326.129 C 306.260 327.300,305.600 328.401,305.600 328.574 C 305.600 328.844,307.643 326.022,308.549 324.500 C 309.341 323.171,308.367 324.241,307.066 326.129 M308.500 336.676 C 308.885 336.776,309.515 336.776,309.900 336.676 C 310.285 336.575,309.970 336.493,309.200 336.493 C 308.430 336.493,308.115 336.575,308.500 336.676 M295.400 341.971 C 294.815 342.201,295.053 342.287,296.287 342.288 C 297.215 342.290,298.475 342.596,299.087 342.969 L 300.200 343.647 299.256 342.824 C 298.736 342.371,298.076 342.000,297.788 342.000 C 297.501 342.000,297.026 341.923,296.733 341.828 C 296.440 341.733,295.840 341.798,295.400 341.971 M172.000 345.725 C 172.000 345.794,172.585 346.379,173.300 347.025 L 174.600 348.200 173.425 346.900 C 172.330 345.688,172.000 345.416,172.000 345.725 M287.970 347.063 L 287.000 348.127 288.300 347.188 C 289.652 346.212,289.825 346.000,289.270 346.000 C 289.088 346.000,288.503 346.479,287.970 347.063 M280.800 351.600 C 280.030 352.022,279.544 352.374,279.720 352.383 C 280.144 352.405,282.400 351.232,282.400 350.990 C 282.400 350.728,282.377 350.737,280.800 351.600 M275.200 354.200 C 274.650 354.514,274.380 354.772,274.600 354.772 C 274.820 354.772,275.450 354.514,276.000 354.200 C 276.550 353.886,276.820 353.628,276.600 353.628 C 276.380 353.628,275.750 353.886,275.200 354.200 M181.600 354.146 C 181.600 354.256,182.140 354.730,182.800 355.200 C 183.460 355.670,184.000 355.964,184.000 355.854 C 184.000 355.744,183.460 355.270,182.800 354.800 C 182.140 354.330,181.600 354.036,181.600 354.146 M272.400 355.400 C 271.850 355.714,271.580 355.972,271.800 355.972 C 272.020 355.972,272.650 355.714,273.200 355.400 C 273.750 355.086,274.020 354.828,273.800 354.828 C 273.580 354.828,272.950 355.086,272.400 355.400 M257.600 359.600 C 256.796 359.857,256.757 359.923,257.400 359.932 C 257.840 359.938,258.560 359.789,259.000 359.600 C 260.019 359.162,258.968 359.162,257.600 359.600 " stroke="none" fill="#53a7a7" fill-rule="evenodd"></path><path id="path8" d="M89.167 71.009 C 77.509 73.839,67.836 85.342,60.074 105.600 C 56.614 114.632,55.786 125.438,58.143 130.800 C 65.529 147.605,80.996 140.815,105.917 109.827 C 120.575 91.599,122.725 79.313,112.200 73.907 C 106.759 71.113,94.889 69.619,89.167 71.009 M103.600 72.020 C 118.019 74.287,121.830 83.636,113.784 96.998 C 113.023 98.263,112.400 99.364,112.400 99.445 C 112.400 99.941,105.547 109.113,102.570 112.600 C 101.443 113.920,100.179 115.429,99.761 115.953 C 95.917 120.769,86.429 130.213,83.037 132.600 C 82.411 133.040,81.402 133.804,80.795 134.298 C 80.187 134.791,78.639 135.748,77.354 136.424 C 76.069 137.100,74.800 137.834,74.533 138.055 C 73.886 138.592,68.487 138.980,66.596 138.626 C 63.937 138.127,57.488 130.645,58.685 129.448 C 58.822 129.312,58.744 129.200,58.513 129.200 C 57.109 129.200,57.350 115.070,58.810 111.800 C 59.006 111.360,59.370 110.190,59.619 109.200 C 59.868 108.210,60.303 106.860,60.585 106.200 C 60.867 105.540,61.583 103.830,62.177 102.400 C 62.770 100.970,63.411 99.440,63.600 99.000 C 64.078 97.891,68.676 89.316,69.733 87.563 C 70.978 85.499,74.836 80.722,77.081 78.465 C 78.957 76.579,82.919 74.126,87.012 72.318 C 89.523 71.208,97.523 71.065,103.600 72.020 M117.617 135.169 C 117.390 135.592,116.979 136.183,116.703 136.483 C 116.085 137.152,114.000 140.990,114.000 141.457 C 114.000 141.644,114.710 140.627,115.578 139.198 C 117.935 135.316,118.441 134.400,118.224 134.400 C 118.116 134.400,117.843 134.746,117.617 135.169 M262.566 148.400 C 262.730 148.950,262.967 149.850,263.092 150.400 C 263.217 150.950,263.433 151.490,263.573 151.600 C 263.875 151.838,264.800 156.284,264.800 157.496 C 264.800 157.962,265.068 158.611,265.395 158.938 C 265.777 159.320,266.085 160.761,266.254 162.967 C 266.483 165.947,266.616 166.400,267.259 166.400 C 267.882 166.400,268.000 166.720,268.000 168.400 C 268.000 169.911,268.147 170.400,268.600 170.400 C 269.061 170.400,269.200 170.911,269.200 172.600 C 269.200 174.289,269.339 174.800,269.800 174.800 C 270.253 174.800,270.400 175.289,270.400 176.800 C 270.400 178.533,270.507 178.800,271.200 178.800 C 271.949 178.800,272.000 179.067,272.000 183.000 C 272.000 186.467,272.105 187.200,272.600 187.200 C 273.118 187.200,273.200 188.644,273.200 197.800 C 273.200 206.956,273.118 208.400,272.600 208.400 C 272.139 208.400,272.000 208.911,272.000 210.600 C 272.000 211.810,271.820 212.800,271.600 212.800 C 271.380 212.800,271.200 213.700,271.200 214.800 C 271.200 215.900,271.020 216.800,270.800 216.800 C 270.580 216.800,270.400 217.160,270.400 217.600 C 270.400 218.044,270.667 218.400,271.000 218.400 C 271.330 218.400,271.600 218.126,271.600 217.791 C 271.600 217.457,272.050 216.978,272.600 216.727 C 273.485 216.324,273.600 216.026,273.600 214.136 C 273.600 212.504,273.742 212.000,274.200 212.000 C 274.618 212.000,274.800 212.421,274.800 213.387 C 274.800 214.448,274.939 214.721,275.392 214.548 C 276.126 214.266,276.795 211.958,276.798 209.700 C 276.800 208.267,276.926 208.000,277.600 208.000 C 278.379 208.000,278.400 207.733,278.400 197.800 C 278.400 189.476,278.300 187.600,277.857 187.600 C 277.445 187.600,277.190 186.102,276.800 181.400 C 276.410 176.698,276.155 175.200,275.743 175.200 C 275.351 175.200,275.200 174.586,275.200 173.000 C 275.200 171.790,275.020 170.800,274.800 170.800 C 274.580 170.800,274.400 169.900,274.400 168.800 C 274.400 166.844,274.373 166.800,273.200 166.800 C 272.027 166.800,272.000 166.756,272.000 164.800 C 272.000 162.933,271.933 162.800,271.000 162.800 C 270.055 162.800,270.000 162.680,270.000 160.600 C 270.000 158.667,269.903 158.400,269.200 158.400 C 268.619 158.400,268.400 158.133,268.400 157.427 C 268.400 156.805,268.111 156.362,267.600 156.200 C 267.160 156.060,266.800 155.598,266.800 155.173 C 266.800 154.748,266.620 154.400,266.400 154.400 C 266.180 154.400,266.000 153.410,266.000 152.200 C 266.000 150.653,265.844 150.000,265.476 150.000 C 265.188 150.000,264.348 149.415,263.610 148.700 C 262.324 147.455,262.280 147.442,262.566 148.400 M46.977 156.627 C 41.497 160.180,39.741 171.906,43.824 177.677 C 46.785 181.863,52.062 182.943,54.633 179.888 C 57.004 177.070,59.598 169.429,59.602 165.249 C 59.609 158.249,52.238 153.215,46.977 156.627 M52.911 156.824 C 54.913 157.380,57.046 159.306,58.015 161.432 C 58.863 163.293,59.124 168.153,58.400 168.600 C 58.180 168.736,57.998 169.242,57.995 169.724 C 57.975 172.937,54.609 179.458,52.373 180.614 C 50.486 181.590,48.644 180.931,45.066 178.001 C 42.231 175.680,41.567 166.835,43.864 162.000 C 46.292 156.890,48.532 155.608,52.911 156.824 M266.679 176.500 C 266.514 184.042,266.316 186.689,265.786 188.400 C 264.046 194.025,264.777 203.733,267.397 209.800 C 267.682 210.460,268.039 211.585,268.190 212.300 C 268.340 213.015,268.609 213.600,268.787 213.600 C 268.965 213.600,269.229 214.230,269.374 215.000 C 269.815 217.355,270.800 216.803,270.800 214.200 C 270.800 212.990,270.980 212.000,271.200 212.000 C 271.420 212.000,271.600 211.100,271.600 210.000 C 271.600 208.489,271.747 208.000,272.200 208.000 C 272.718 208.000,272.800 206.600,272.800 197.800 C 272.800 189.000,272.718 187.600,272.200 187.600 C 271.705 187.600,271.600 186.867,271.600 183.400 C 271.600 179.467,271.549 179.200,270.800 179.200 C 270.107 179.200,270.000 178.933,270.000 177.200 C 270.000 175.467,269.893 175.200,269.200 175.200 C 268.497 175.200,268.400 174.933,268.400 173.000 C 268.400 171.790,268.220 170.800,268.000 170.800 C 267.780 170.800,267.600 169.900,267.600 168.800 C 267.600 167.700,267.440 166.800,267.245 166.800 C 267.050 166.800,266.795 171.165,266.679 176.500 M62.646 346.976 C 62.768 347.293,63.347 347.858,63.934 348.231 C 64.995 348.907,64.995 348.905,63.825 347.655 C 62.509 346.249,62.327 346.144,62.646 346.976 " stroke="none" fill="#98ddf7" fill-rule="evenodd"></path></g></svg>